<?xml version="1.0" encoding="utf-8" standalone="no"?>
<!DOCTYPE svg PUBLIC "-//W3C//DTD SVG 1.1//EN"
  "http://www.w3.org/Graphics/SVG/1.1/DTD/svg11.dtd">
<svg xmlns:xlink="http://www.w3.org/1999/xlink" width="720pt" height="432pt" viewBox="0 0 720 432" xmlns="http://www.w3.org/2000/svg" version="1.1">
 <metadata>
  <rdf:RDF xmlns:dc="http://purl.org/dc/elements/1.1/" xmlns:cc="http://creativecommons.org/ns#" xmlns:rdf="http://www.w3.org/1999/02/22-rdf-syntax-ns#">
   <cc:Work>
    <dc:type rdf:resource="http://purl.org/dc/dcmitype/StillImage"/>
    <dc:date>2023-10-29T16:42:35.752544</dc:date>
    <dc:format>image/svg+xml</dc:format>
    <dc:creator>
     <cc:Agent>
      <dc:title>Matplotlib v3.7.1, https://matplotlib.org/</dc:title>
     </cc:Agent>
    </dc:creator>
   </cc:Work>
  </rdf:RDF>
 </metadata>
 <defs>
  <style type="text/css">*{stroke-linejoin: round; stroke-linecap: butt}</style>
 </defs>
 <g id="figure_1">
  <g id="patch_1">
   <path d="M 0 432 
L 720 432 
L 720 0 
L 0 0 
z
" style="fill: #ffffff"/>
  </g>
  <g id="axes_1">
   <g id="patch_2">
    <path d="M 535.32 218.16 
C 535.32 196.319058 531.017811 174.690491 522.659644 154.512092 
C 514.301477 134.333692 502.049878 115.997879 486.606 100.554 
C 471.162121 85.110122 452.826308 72.858523 432.647908 64.500356 
C 412.469509 56.142189 390.840942 51.84 369 51.84 
C 347.159058 51.84 325.530491 56.142189 305.352092 64.500356 
C 285.173692 72.858523 266.837879 85.110122 251.394 100.554 
C 235.950122 115.997879 223.698523 134.333692 215.340356 154.512092 
C 206.982189 174.690491 202.68 196.319058 202.68 218.16 
C 202.68 240.000942 206.982189 261.629509 215.340356 281.807908 
C 223.698523 301.986308 235.950122 320.322121 251.394 335.766 
C 266.837879 351.209878 285.173692 363.461477 305.352092 371.819644 
C 325.530491 380.177811 347.159058 384.48 369 384.48 
C 390.840942 384.48 412.469509 380.177811 432.647908 371.819644 
C 452.826308 363.461477 471.162121 351.209878 486.606 335.766 
C 502.049878 320.322121 514.301477 301.986308 522.659644 281.807908 
C 531.017811 261.629509 535.32 240.000942 535.32 218.16 
M 369 218.16 
C 369 218.16 369 218.16 369 218.16 
C 369 218.16 369 218.16 369 218.16 
C 369 218.16 369 218.16 369 218.16 
C 369 218.16 369 218.16 369 218.16 
C 369 218.16 369 218.16 369 218.16 
C 369 218.16 369 218.16 369 218.16 
C 369 218.16 369 218.16 369 218.16 
C 369 218.16 369 218.16 369 218.16 
C 369 218.16 369 218.16 369 218.16 
C 369 218.16 369 218.16 369 218.16 
C 369 218.16 369 218.16 369 218.16 
C 369 218.16 369 218.16 369 218.16 
C 369 218.16 369 218.16 369 218.16 
C 369 218.16 369 218.16 369 218.16 
C 369 218.16 369 218.16 369 218.16 
C 369 218.16 369 218.16 369 218.16 
z
" style="fill: #ffffff"/>
   </g>
   <g id="patch_3">
    <path d="M 507.176196 218.16 
L 482.431893 167.656868 
L 467.108128 109.199885 
L 413.359301 81.636109 
L 357.06418 104.598257 
L 307.684313 111.958115 
L 251.623765 132.881173 
L 244.167757 191.626088 
L 234.031003 246.848546 
L 260.78408 296.783468 
L 298.472567 340.317098 
L 354.957859 351.762051 
L 412.173224 351.03352 
L 463.255715 322.841576 
L 494.879596 274.205207 
L 507.176196 218.16 
z
" clip-path="url(#p76d00ca76b)" style="fill: none; opacity: 0"/>
   </g>
   <g id="patch_4">
    <path d="M 492.399019 218.16 
L 468.93227 173.667287 
L 458.504405 118.755288 
L 408.496383 96.602632 
L 358.08725 114.332121 
L 316.128414 126.583727 
L 257.523629 137.167675 
L 258.997452 194.778237 
L 248.485263 243.776198 
L 277.396854 284.713582 
L 305.381377 328.350688 
L 356.823457 334.012064 
L 406.835875 334.606848 
L 453.753095 312.287848 
L 487.516166 270.926797 
L 492.399019 218.16 
z
" clip-path="url(#p76d00ca76b)" style="fill: none; opacity: 0"/>
   </g>
   <g id="patch_5">
    <path d="M 518.498967 218.16 
L 493.301718 162.817309 
L 477.252817 97.933067 
L 417.095446 70.137439 
L 355.318942 87.993431 
L 301.543149 101.321307 
L 239.979297 124.420972 
L 233.280133 189.311852 
L 224.832838 248.803676 
L 252.400063 302.874813 
L 292.523314 350.621506 
L 353.653946 364.167955 
L 415.434937 361.072041 
L 470.960541 331.398653 
L 509.255818 280.605913 
L 518.498967 218.16 
z
" clip-path="url(#p76d00ca76b)" style="fill: none; opacity: 0"/>
   </g>
   <g id="patch_6">
    <path d="M 468.026274 218.16 
L 449.471775 182.331657 
L 444.635716 134.158027 
L 401.913653 116.862193 
L 360.534595 137.617049 
L 325.532072 142.87134 
L 279.570488 153.185656 
L 280.960418 199.446609 
L 268.383335 239.546732 
L 295.562223 271.515668 
L 317.567749 307.243271 
L 359.190561 311.490575 
L 399.42289 311.792027 
L 437.444545 294.175368 
L 457.185845 257.422868 
L 468.026274 218.16 
z
" clip-path="url(#p76d00ca76b)" style="fill: none; opacity: 0"/>
   </g>
   <g id="patch_7">
    <path d="M 510.822512 218.16 
L 493.477038 162.739252 
L 471.987852 103.780403 
L 414.130252 79.263367 
L 356.06117 95.055253 
L 304.517775 106.473511 
L 243.705527 127.128237 
L 237.034486 190.109864 
L 229.150344 247.885962 
L 256.90259 299.603535 
L 296.553453 343.6411 
L 354.516534 355.960972 
L 412.469743 351.946113 
L 465.438749 325.266081 
L 498.736631 275.92247 
L 510.822512 218.16 
z
" clip-path="url(#p76d00ca76b)" style="fill: none; opacity: 0"/>
   </g>
   <g id="patch_8">
    <path d="M 510.054866 218.16 
L 487.866806 165.237088 
L 467.878611 108.344178 
L 415.138418 76.160552 
L 356.943819 103.453097 
L 306.916668 110.628514 
L 250.692208 132.204357 
L 244.918628 191.78569 
L 231.402956 247.407155 
L 263.423492 294.865823 
L 296.745364 343.3087 
L 354.576715 355.388392 
L 413.537213 355.231447 
L 465.438749 325.266081 
L 494.002998 273.81492 
L 510.054866 218.16 
z
" clip-path="url(#p76d00ca76b)" style="fill: none; opacity: 0"/>
   </g>
   <g id="patch_9">
    <path d="M 476.662286 218.16 
L 463.322037 176.165123 
L 447.332406 131.16305 
L 406.30214 103.355819 
L 361.577725 147.541773 
L 327.547141 146.361543 
L 269.012837 145.515074 
L 282.274442 199.725914 
L 270.072794 239.187627 
L 292.301772 273.884524 
L 312.578053 315.885678 
L 358.007009 322.75132 
L 402.743907 322.013067 
L 444.378889 301.876737 
L 458.413084 257.96927 
L 476.662286 218.16 
z
" clip-path="url(#p76d00ca76b)" style="fill: none; opacity: 0"/>
   </g>
   <g id="matplotlib.axis_1">
    <g id="xtick_1">
     <g id="line2d_1">
      <path d="M 369 218.16 
L 535.32 218.16 
" clip-path="url(#p76d00ca76b)" style="fill: none; stroke: #d3d3d3; stroke-width: 0.8; stroke-linecap: square"/>
     </g>
     <g id="text_1">
      <!-- Aspect Ration Change -->
      <g transform="translate(549.32 215.886562) scale(0.1 -0.1)">
       <defs>
        <path id="SimHei-41" d="M 3075 125 
L 2475 125 
L 2125 1450 
L 1025 1450 
L 675 125 
L 75 125 
L 1325 4450 
L 1825 4450 
L 3075 125 
z
M 2000 1925 
L 1600 3450 
L 1550 3450 
L 1150 1925 
L 2000 1925 
z
" transform="scale(0.015625)"/>
        <path id="SimHei-73" d="M 2750 900 
Q 2750 500 2437 287 
Q 2125 75 1650 75 
Q 1050 75 725 312 
Q 400 550 400 1000 
L 900 1000 
Q 900 700 1112 600 
Q 1325 500 1625 500 
Q 1925 500 2075 612 
Q 2225 725 2225 900 
Q 2225 1025 2100 1150 
Q 1975 1275 1475 1350 
Q 900 1425 687 1637 
Q 475 1850 475 2200 
Q 475 2500 762 2737 
Q 1050 2975 1600 2975 
Q 2100 2975 2387 2750 
Q 2675 2525 2675 2150 
L 2175 2150 
Q 2175 2375 2012 2462 
Q 1850 2550 1600 2550 
Q 1275 2550 1137 2437 
Q 1000 2325 1000 2175 
Q 1000 2000 1125 1900 
Q 1250 1800 1650 1750 
Q 2300 1650 2525 1437 
Q 2750 1225 2750 900 
z
" transform="scale(0.015625)"/>
        <path id="SimHei-70" d="M 2825 1525 
Q 2825 800 2475 425 
Q 2125 50 1625 50 
Q 1350 50 1150 162 
Q 950 275 800 500 
L 800 -800 
L 300 -800 
L 300 2925 
L 800 2925 
L 800 2550 
Q 950 2775 1150 2875 
Q 1350 2975 1625 2975 
Q 2125 2975 2475 2612 
Q 2825 2250 2825 1525 
z
M 2275 1525 
Q 2275 2000 2087 2262 
Q 1900 2525 1525 2525 
Q 1225 2525 1012 2262 
Q 800 2000 800 1525 
Q 800 1050 1012 775 
Q 1225 500 1525 500 
Q 1900 500 2087 775 
Q 2275 1050 2275 1525 
z
" transform="scale(0.015625)"/>
        <path id="SimHei-65" d="M 2850 1075 
Q 2800 625 2450 350 
Q 2100 75 1625 75 
Q 1025 75 637 462 
Q 250 850 250 1525 
Q 250 2200 637 2587 
Q 1025 2975 1625 2975 
Q 2150 2975 2487 2637 
Q 2825 2300 2825 1525 
L 800 1525 
Q 800 975 1037 750 
Q 1275 525 1625 525 
Q 1900 525 2075 662 
Q 2250 800 2300 1075 
L 2850 1075 
z
M 2250 1925 
Q 2200 2275 2025 2412 
Q 1850 2550 1575 2550 
Q 1325 2550 1125 2412 
Q 925 2275 825 1925 
L 2250 1925 
z
" transform="scale(0.015625)"/>
        <path id="SimHei-63" d="M 2850 1250 
Q 2850 725 2487 400 
Q 2125 75 1575 75 
Q 1025 75 625 462 
Q 225 850 225 1525 
Q 225 2200 625 2587 
Q 1025 2975 1575 2975 
Q 2125 2975 2450 2687 
Q 2775 2400 2775 2000 
L 2225 2000 
Q 2200 2300 2012 2412 
Q 1825 2525 1575 2525 
Q 1275 2525 1025 2287 
Q 775 2050 775 1525 
Q 775 1000 1025 762 
Q 1275 525 1575 525 
Q 1900 525 2100 700 
Q 2300 875 2300 1250 
L 2850 1250 
z
" transform="scale(0.015625)"/>
        <path id="SimHei-74" d="M 2750 200 
Q 2625 150 2462 112 
Q 2300 75 2025 75 
Q 1575 75 1300 325 
Q 1025 575 1025 1025 
L 1025 2525 
L 175 2525 
L 175 2925 
L 1025 2925 
L 1025 3900 
L 1525 3900 
L 1525 2925 
L 2550 2925 
L 2550 2525 
L 1525 2525 
L 1525 1000 
Q 1525 800 1625 662 
Q 1725 525 2000 525 
Q 2275 525 2450 575 
Q 2625 625 2750 700 
L 2750 200 
z
" transform="scale(0.015625)"/>
        <path id="SimHei-20" transform="scale(0.015625)"/>
        <path id="SimHei-52" d="M 3000 125 
L 2400 125 
L 1500 1975 
L 850 1975 
L 850 125 
L 275 125 
L 275 4400 
L 1525 4400 
Q 2125 4400 2500 4112 
Q 2875 3825 2875 3175 
Q 2875 2675 2625 2400 
Q 2375 2125 2050 2050 
L 3000 125 
z
M 2300 3175 
Q 2300 3525 2087 3725 
Q 1875 3925 1400 3925 
L 850 3925 
L 850 2450 
L 1550 2450 
Q 1850 2450 2075 2612 
Q 2300 2775 2300 3175 
z
" transform="scale(0.015625)"/>
        <path id="SimHei-61" d="M 2875 125 
L 2275 125 
Q 2225 175 2200 262 
Q 2175 350 2175 475 
Q 2000 275 1750 175 
Q 1500 75 1225 75 
Q 825 75 550 275 
Q 275 475 275 850 
Q 275 1225 525 1450 
Q 775 1675 1300 1750 
Q 1650 1800 1912 1875 
Q 2175 1950 2175 2075 
Q 2175 2225 2062 2375 
Q 1950 2525 1575 2525 
Q 1275 2525 1137 2412 
Q 1000 2300 950 2100 
L 400 2100 
Q 450 2500 762 2737 
Q 1075 2975 1575 2975 
Q 2125 2975 2400 2725 
Q 2675 2475 2675 2025 
L 2675 650 
Q 2675 500 2725 375 
Q 2775 250 2875 125 
z
M 2175 1050 
L 2175 1550 
Q 2025 1500 1887 1462 
Q 1750 1425 1425 1375 
Q 1050 1325 937 1200 
Q 825 1075 825 900 
Q 825 750 937 637 
Q 1050 525 1275 525 
Q 1500 525 1762 650 
Q 2025 775 2175 1050 
z
" transform="scale(0.015625)"/>
        <path id="SimHei-69" d="M 1800 3725 
L 1300 3725 
L 1300 4375 
L 1800 4375 
L 1800 3725 
z
M 1800 125 
L 1300 125 
L 1300 2925 
L 1800 2925 
L 1800 125 
z
" transform="scale(0.015625)"/>
        <path id="SimHei-6f" d="M 2925 1525 
Q 2925 875 2525 475 
Q 2125 75 1575 75 
Q 1025 75 625 475 
Q 225 875 225 1525 
Q 225 2175 625 2575 
Q 1025 2975 1575 2975 
Q 2125 2975 2525 2575 
Q 2925 2175 2925 1525 
z
M 2375 1525 
Q 2375 2025 2125 2275 
Q 1875 2525 1575 2525 
Q 1275 2525 1025 2275 
Q 775 2025 775 1525 
Q 775 1025 1025 775 
Q 1275 525 1575 525 
Q 1875 525 2125 775 
Q 2375 1025 2375 1525 
z
" transform="scale(0.015625)"/>
        <path id="SimHei-6e" d="M 2800 125 
L 2300 125 
L 2300 1925 
Q 2300 2225 2150 2400 
Q 2000 2575 1750 2575 
Q 1425 2575 1137 2237 
Q 850 1900 850 1400 
L 850 125 
L 350 125 
L 350 2925 
L 850 2925 
L 850 2400 
Q 1050 2675 1287 2825 
Q 1525 2975 1900 2975 
Q 2350 2975 2575 2725 
Q 2800 2475 2800 2100 
L 2800 125 
z
" transform="scale(0.015625)"/>
        <path id="SimHei-43" d="M 2975 1825 
Q 2950 875 2575 475 
Q 2200 75 1675 75 
Q 1075 75 650 562 
Q 225 1050 225 2125 
Q 225 3300 637 3875 
Q 1050 4450 1700 4450 
Q 2250 4450 2612 4037 
Q 2975 3625 2950 2875 
L 2400 2875 
Q 2400 3425 2225 3700 
Q 2050 3975 1700 3975 
Q 1300 3975 1062 3562 
Q 825 3150 825 2175 
Q 825 1275 1062 912 
Q 1300 550 1675 550 
Q 1950 550 2175 812 
Q 2400 1075 2400 1825 
L 2975 1825 
z
" transform="scale(0.015625)"/>
        <path id="SimHei-68" d="M 2800 125 
L 2300 125 
L 2300 1925 
Q 2300 2225 2150 2400 
Q 2000 2575 1750 2575 
Q 1425 2575 1137 2237 
Q 850 1900 850 1400 
L 850 125 
L 350 125 
L 350 4400 
L 850 4400 
L 850 2400 
Q 1050 2675 1287 2825 
Q 1525 2975 1900 2975 
Q 2350 2975 2575 2725 
Q 2800 2475 2800 2100 
L 2800 125 
z
" transform="scale(0.015625)"/>
        <path id="SimHei-67" d="M 2975 2500 
Q 2800 2550 2637 2562 
Q 2475 2575 2300 2525 
Q 2375 2450 2425 2337 
Q 2475 2225 2475 2000 
Q 2475 1575 2187 1300 
Q 1900 1025 1475 1025 
Q 1375 1025 1212 1062 
Q 1050 1100 950 1150 
Q 875 1100 850 1050 
Q 825 1000 825 925 
Q 825 800 1000 737 
Q 1175 675 1625 675 
Q 2350 675 2612 475 
Q 2875 275 2875 -25 
Q 2875 -425 2487 -612 
Q 2100 -800 1575 -800 
Q 900 -800 575 -625 
Q 250 -450 250 -150 
Q 250 0 375 150 
Q 500 300 700 400 
Q 550 475 462 587 
Q 375 700 375 875 
Q 375 1025 487 1137 
Q 600 1250 750 1325 
Q 625 1450 550 1625 
Q 475 1800 475 2000 
Q 475 2425 762 2700 
Q 1050 2975 1475 2975 
Q 1700 2975 1862 2912 
Q 2025 2850 2150 2725 
Q 2350 2875 2550 2937 
Q 2750 3000 2975 2975 
L 2975 2500 
z
M 1975 2000 
Q 1975 2250 1850 2400 
Q 1725 2550 1475 2550 
Q 1225 2550 1100 2400 
Q 975 2250 975 2000 
Q 975 1750 1100 1600 
Q 1225 1450 1475 1450 
Q 1725 1450 1850 1600 
Q 1975 1750 1975 2000 
z
M 2400 -75 
Q 2400 25 2287 125 
Q 2175 225 1725 225 
Q 1625 225 1450 237 
Q 1275 250 1050 275 
Q 850 200 775 100 
Q 700 0 700 -100 
Q 700 -250 900 -350 
Q 1100 -450 1600 -450 
Q 2025 -450 2212 -337 
Q 2400 -225 2400 -75 
z
" transform="scale(0.015625)"/>
       </defs>
       <use xlink:href="#SimHei-41"/>
       <use xlink:href="#SimHei-73" x="50"/>
       <use xlink:href="#SimHei-70" x="100"/>
       <use xlink:href="#SimHei-65" x="150"/>
       <use xlink:href="#SimHei-63" x="200"/>
       <use xlink:href="#SimHei-74" x="250"/>
       <use xlink:href="#SimHei-20" x="300"/>
       <use xlink:href="#SimHei-52" x="350"/>
       <use xlink:href="#SimHei-61" x="400"/>
       <use xlink:href="#SimHei-74" x="450"/>
       <use xlink:href="#SimHei-69" x="500"/>
       <use xlink:href="#SimHei-6f" x="550"/>
       <use xlink:href="#SimHei-6e" x="600"/>
       <use xlink:href="#SimHei-20" x="650"/>
       <use xlink:href="#SimHei-43" x="700"/>
       <use xlink:href="#SimHei-68" x="750"/>
       <use xlink:href="#SimHei-61" x="800"/>
       <use xlink:href="#SimHei-6e" x="850"/>
       <use xlink:href="#SimHei-67" x="900"/>
       <use xlink:href="#SimHei-65" x="950"/>
      </g>
      <!-- [51.6, 77.9] -->
      <g transform="translate(549.32 226.136562) scale(0.1 -0.1)">
       <defs>
        <path id="SimHei-5b" d="M 2825 -525 
L 1250 -525 
L 1250 5050 
L 2825 5050 
L 2825 4650 
L 1675 4650 
L 1675 -125 
L 2825 -125 
L 2825 -525 
z
" transform="scale(0.015625)"/>
        <path id="SimHei-35" d="M 550 1325 
Q 725 650 1150 575 
Q 1575 500 1837 662 
Q 2100 825 2212 1087 
Q 2325 1350 2312 1675 
Q 2300 2000 2137 2225 
Q 1975 2450 1725 2525 
Q 1475 2600 1162 2525 
Q 850 2450 650 2175 
L 225 2225 
Q 275 2375 700 4375 
L 2675 4375 
L 2675 3925 
L 1075 3925 
Q 950 3250 825 2850 
Q 1200 3025 1525 3012 
Q 1850 3000 2150 2862 
Q 2450 2725 2587 2487 
Q 2725 2250 2787 2012 
Q 2850 1775 2837 1500 
Q 2825 1225 2725 937 
Q 2625 650 2425 462 
Q 2225 275 1937 162 
Q 1650 50 1275 75 
Q 900 100 562 350 
Q 225 600 100 1200 
L 550 1325 
z
" transform="scale(0.015625)"/>
        <path id="SimHei-31" d="M 1400 3600 
Q 1075 3275 575 2975 
L 575 3450 
Q 1200 3875 1600 4450 
L 1900 4450 
L 1900 150 
L 1400 150 
L 1400 3600 
z
" transform="scale(0.015625)"/>
        <path id="SimHei-2e" d="M 1075 125 
L 500 125 
L 500 675 
L 1075 675 
L 1075 125 
z
" transform="scale(0.015625)"/>
        <path id="SimHei-36" d="M 250 1612 
Q 275 1975 387 2225 
Q 500 2475 725 2850 
L 1750 4450 
L 2325 4450 
L 1275 2800 
Q 1950 2975 2350 2750 
Q 2750 2525 2887 2237 
Q 3025 1950 3037 1612 
Q 3050 1275 2937 950 
Q 2825 625 2537 362 
Q 2250 100 1737 75 
Q 1225 50 862 262 
Q 500 475 362 862 
Q 225 1250 250 1612 
z
M 1025 787 
Q 1250 550 1625 525 
Q 2000 500 2250 775 
Q 2500 1050 2500 1575 
Q 2500 2100 2187 2300 
Q 1875 2500 1487 2450 
Q 1100 2400 925 2075 
Q 750 1750 775 1387 
Q 800 1025 1025 787 
z
" transform="scale(0.015625)"/>
        <path id="SimHei-2c" d="M 1100 125 
L 775 -550 
L 525 -550 
L 775 125 
L 525 125 
L 525 675 
L 1100 675 
L 1100 125 
z
" transform="scale(0.015625)"/>
        <path id="SimHei-37" d="M 850 150 
Q 1300 2050 2425 3925 
L 275 3925 
L 275 4375 
L 2950 4375 
L 2950 3950 
Q 1775 2050 1400 150 
L 850 150 
z
" transform="scale(0.015625)"/>
        <path id="SimHei-39" d="M 800 75 
Q 1350 1000 1700 1750 
Q 1075 1650 662 1912 
Q 250 2175 162 2625 
Q 75 3075 175 3437 
Q 275 3800 487 4037 
Q 700 4275 1000 4375 
Q 1300 4475 1537 4475 
Q 1775 4475 2025 4375 
Q 2275 4275 2475 4075 
Q 2675 3875 2750 3662 
Q 2825 3450 2825 3112 
Q 2825 2775 2575 2250 
Q 2325 1725 1350 75 
L 800 75 
z
M 662 2875 
Q 700 2550 937 2337 
Q 1175 2125 1450 2150 
Q 1725 2175 1887 2300 
Q 2050 2425 2200 2725 
Q 2300 3100 2250 3362 
Q 2200 3625 1987 3800 
Q 1775 3975 1525 3975 
Q 1375 4000 1137 3900 
Q 900 3800 762 3500 
Q 625 3200 662 2875 
z
" transform="scale(0.015625)"/>
        <path id="SimHei-5d" d="M 1875 -525 
L 300 -525 
L 300 -125 
L 1450 -125 
L 1450 4650 
L 300 4650 
L 300 5050 
L 1875 5050 
L 1875 -525 
z
" transform="scale(0.015625)"/>
       </defs>
       <use xlink:href="#SimHei-5b"/>
       <use xlink:href="#SimHei-35" x="50"/>
       <use xlink:href="#SimHei-31" x="100"/>
       <use xlink:href="#SimHei-2e" x="150"/>
       <use xlink:href="#SimHei-36" x="200"/>
       <use xlink:href="#SimHei-2c" x="250"/>
       <use xlink:href="#SimHei-20" x="300"/>
       <use xlink:href="#SimHei-37" x="350"/>
       <use xlink:href="#SimHei-37" x="400"/>
       <use xlink:href="#SimHei-2e" x="450"/>
       <use xlink:href="#SimHei-39" x="500"/>
       <use xlink:href="#SimHei-5d" x="550"/>
      </g>
     </g>
    </g>
    <g id="xtick_2">
     <g id="line2d_2">
      <path d="M 369 218.16 
L 520.940881 150.511562 
" clip-path="url(#p76d00ca76b)" style="fill: none; stroke: #d3d3d3; stroke-width: 0.8; stroke-linecap: square"/>
     </g>
     <g id="text_2">
      <!-- Background Clutter -->
      <g transform="translate(533.730517 142.543811) scale(0.1 -0.1)">
       <defs>
        <path id="SimHei-42" d="M 2950 1400 
Q 2950 675 2550 400 
Q 2150 125 1525 125 
L 275 125 
L 275 4400 
L 1575 4400 
Q 2200 4400 2512 4075 
Q 2825 3750 2825 3300 
Q 2825 2850 2612 2637 
Q 2400 2425 2175 2350 
Q 2475 2275 2712 2037 
Q 2950 1800 2950 1400 
z
M 2250 3300 
Q 2250 3625 2062 3775 
Q 1875 3925 1600 3925 
L 850 3925 
L 850 2600 
L 1575 2600 
Q 1850 2600 2050 2762 
Q 2250 2925 2250 3300 
z
M 2350 1400 
Q 2350 1800 2087 1962 
Q 1825 2125 1500 2125 
L 850 2125 
L 850 600 
L 1425 600 
Q 1875 600 2112 775 
Q 2350 950 2350 1400 
z
" transform="scale(0.015625)"/>
        <path id="SimHei-6b" d="M 2925 125 
L 2350 125 
L 1450 1650 
L 875 1100 
L 875 125 
L 375 125 
L 375 4400 
L 875 4400 
L 875 1675 
L 2125 2925 
L 2750 2925 
L 1775 1975 
L 2925 125 
z
" transform="scale(0.015625)"/>
        <path id="SimHei-72" d="M 2500 2425 
Q 2025 2500 1700 2287 
Q 1375 2075 1150 1550 
L 1150 125 
L 650 125 
L 650 2925 
L 1150 2925 
L 1150 2200 
Q 1375 2600 1712 2787 
Q 2050 2975 2500 2975 
L 2500 2425 
z
" transform="scale(0.015625)"/>
        <path id="SimHei-75" d="M 2800 125 
L 2300 125 
L 2300 650 
Q 2100 375 1862 225 
Q 1625 75 1250 75 
Q 800 75 575 325 
Q 350 575 350 950 
L 350 2925 
L 850 2925 
L 850 1125 
Q 850 825 1000 650 
Q 1150 475 1400 475 
Q 1725 475 2012 812 
Q 2300 1150 2300 1650 
L 2300 2925 
L 2800 2925 
L 2800 125 
z
" transform="scale(0.015625)"/>
        <path id="SimHei-64" d="M 2750 125 
L 2250 125 
L 2250 500 
Q 2100 275 1900 175 
Q 1700 75 1425 75 
Q 925 75 575 437 
Q 225 800 225 1525 
Q 225 2250 575 2625 
Q 925 3000 1425 3000 
Q 1700 3000 1900 2887 
Q 2100 2775 2250 2550 
L 2250 4400 
L 2750 4400 
L 2750 125 
z
M 2250 1525 
Q 2250 2000 2037 2275 
Q 1825 2550 1525 2550 
Q 1150 2550 962 2275 
Q 775 2000 775 1525 
Q 775 1050 962 787 
Q 1150 525 1525 525 
Q 1825 525 2037 787 
Q 2250 1050 2250 1525 
z
" transform="scale(0.015625)"/>
        <path id="SimHei-6c" d="M 1825 125 
L 1325 125 
L 1325 4400 
L 1825 4400 
L 1825 125 
z
" transform="scale(0.015625)"/>
       </defs>
       <use xlink:href="#SimHei-42"/>
       <use xlink:href="#SimHei-61" x="50"/>
       <use xlink:href="#SimHei-63" x="100"/>
       <use xlink:href="#SimHei-6b" x="150"/>
       <use xlink:href="#SimHei-67" x="200"/>
       <use xlink:href="#SimHei-72" x="250"/>
       <use xlink:href="#SimHei-6f" x="300"/>
       <use xlink:href="#SimHei-75" x="350"/>
       <use xlink:href="#SimHei-6e" x="400"/>
       <use xlink:href="#SimHei-64" x="450"/>
       <use xlink:href="#SimHei-20" x="500"/>
       <use xlink:href="#SimHei-43" x="550"/>
       <use xlink:href="#SimHei-6c" x="600"/>
       <use xlink:href="#SimHei-75" x="650"/>
       <use xlink:href="#SimHei-74" x="700"/>
       <use xlink:href="#SimHei-74" x="750"/>
       <use xlink:href="#SimHei-65" x="800"/>
       <use xlink:href="#SimHei-72" x="850"/>
      </g>
      <!-- [45.9, 71.0] -->
      <g transform="translate(533.730517 152.793811) scale(0.1 -0.1)">
       <defs>
        <path id="SimHei-34" d="M 2000 1100 
L 75 1100 
L 75 1525 
L 2100 4450 
L 2475 4450 
L 2475 1525 
L 3075 1525 
L 3075 1100 
L 2475 1100 
L 2475 150 
L 2000 150 
L 2000 1100 
z
M 2000 1525 
L 2000 3500 
L 600 1525 
L 2000 1525 
z
" transform="scale(0.015625)"/>
        <path id="SimHei-30" d="M 225 2537 
Q 250 3200 412 3587 
Q 575 3975 875 4225 
Q 1175 4475 1612 4475 
Q 2050 4475 2375 4112 
Q 2700 3750 2800 3200 
Q 2900 2650 2862 1937 
Q 2825 1225 2612 775 
Q 2400 325 1975 150 
Q 1550 -25 1125 187 
Q 700 400 525 750 
Q 350 1100 275 1487 
Q 200 1875 225 2537 
z
M 750 2687 
Q 675 2000 800 1462 
Q 925 925 1212 700 
Q 1500 475 1800 612 
Q 2100 750 2237 1162 
Q 2375 1575 2375 2062 
Q 2375 2550 2337 2950 
Q 2300 3350 2112 3675 
Q 1925 4000 1612 4012 
Q 1300 4025 1062 3700 
Q 825 3375 750 2687 
z
" transform="scale(0.015625)"/>
       </defs>
       <use xlink:href="#SimHei-5b"/>
       <use xlink:href="#SimHei-34" x="50"/>
       <use xlink:href="#SimHei-35" x="100"/>
       <use xlink:href="#SimHei-2e" x="150"/>
       <use xlink:href="#SimHei-39" x="200"/>
       <use xlink:href="#SimHei-2c" x="250"/>
       <use xlink:href="#SimHei-20" x="300"/>
       <use xlink:href="#SimHei-37" x="350"/>
       <use xlink:href="#SimHei-31" x="400"/>
       <use xlink:href="#SimHei-2e" x="450"/>
       <use xlink:href="#SimHei-30" x="500"/>
       <use xlink:href="#SimHei-5d" x="550"/>
      </g>
     </g>
    </g>
    <g id="xtick_3">
     <g id="line2d_3">
      <path d="M 369 218.16 
L 480.289802 94.560153 
" clip-path="url(#p76d00ca76b)" style="fill: none; stroke: #d3d3d3; stroke-width: 0.8; stroke-linecap: square"/>
     </g>
     <g id="text_3">
      <!-- Camera Motion -->
      <g transform="translate(489.657631 81.843625) scale(0.1 -0.1)">
       <defs>
        <path id="SimHei-6d" d="M 3050 125 
L 2550 125 
L 2550 2150 
Q 2550 2300 2500 2400 
Q 2450 2500 2300 2500 
Q 2125 2500 1975 2312 
Q 1825 2125 1825 1825 
L 1825 125 
L 1325 125 
L 1325 2150 
Q 1325 2300 1275 2400 
Q 1225 2500 1075 2500 
Q 900 2500 750 2312 
Q 600 2125 600 1825 
L 600 125 
L 100 125 
L 100 2925 
L 600 2925 
L 600 2550 
Q 725 2750 900 2862 
Q 1075 2975 1275 2975 
Q 1475 2975 1612 2862 
Q 1750 2750 1800 2550 
Q 1925 2750 2087 2862 
Q 2250 2975 2450 2975 
Q 2750 2975 2900 2812 
Q 3050 2650 3050 2350 
L 3050 125 
z
" transform="scale(0.015625)"/>
        <path id="SimHei-4d" d="M 2925 125 
L 2425 125 
L 2425 3175 
L 2375 3175 
L 1775 125 
L 1375 125 
L 775 3175 
L 725 3175 
L 725 125 
L 225 125 
L 225 4400 
L 1000 4400 
L 1550 1575 
L 1600 1575 
L 2150 4400 
L 2925 4400 
L 2925 125 
z
" transform="scale(0.015625)"/>
       </defs>
       <use xlink:href="#SimHei-43"/>
       <use xlink:href="#SimHei-61" x="50"/>
       <use xlink:href="#SimHei-6d" x="100"/>
       <use xlink:href="#SimHei-65" x="150"/>
       <use xlink:href="#SimHei-72" x="200"/>
       <use xlink:href="#SimHei-61" x="250"/>
       <use xlink:href="#SimHei-20" x="300"/>
       <use xlink:href="#SimHei-4d" x="350"/>
       <use xlink:href="#SimHei-6f" x="400"/>
       <use xlink:href="#SimHei-74" x="450"/>
       <use xlink:href="#SimHei-69" x="500"/>
       <use xlink:href="#SimHei-6f" x="550"/>
       <use xlink:href="#SimHei-6e" x="600"/>
      </g>
      <!-- [58.9, 84.3] -->
      <g transform="translate(489.657631 92.093625) scale(0.1 -0.1)">
       <defs>
        <path id="SimHei-38" d="M 175 1375 
Q 175 1675 325 1962 
Q 475 2250 825 2425 
Q 525 2600 425 2812 
Q 325 3025 312 3300 
Q 300 3575 387 3775 
Q 475 3975 650 4150 
Q 825 4325 1037 4387 
Q 1250 4450 1500 4450 
Q 1750 4450 1950 4400 
Q 2150 4350 2375 4187 
Q 2600 4025 2700 3725 
Q 2800 3425 2687 3025 
Q 2575 2625 2100 2400 
Q 2525 2275 2700 2012 
Q 2875 1750 2875 1375 
Q 2875 1000 2762 775 
Q 2650 550 2512 400 
Q 2375 250 2137 162 
Q 1900 75 1537 75 
Q 1175 75 912 162 
Q 650 250 475 425 
Q 300 600 237 837 
Q 175 1075 175 1375 
z
M 687 1400 
Q 675 1100 787 875 
Q 900 650 1200 587 
Q 1500 525 1825 600 
Q 2150 675 2275 950 
Q 2400 1225 2362 1500 
Q 2325 1775 2050 1962 
Q 1775 2150 1450 2125 
Q 1125 2100 912 1900 
Q 700 1700 687 1400 
z
M 775 3350 
Q 775 3100 950 2875 
Q 1125 2650 1500 2650 
Q 1875 2650 2062 2875 
Q 2250 3100 2237 3412 
Q 2225 3725 2012 3875 
Q 1800 4025 1437 4000 
Q 1075 3975 925 3787 
Q 775 3600 775 3350 
z
" transform="scale(0.015625)"/>
        <path id="SimHei-33" d="M 250 1225 
L 700 1300 
Q 800 975 1025 762 
Q 1250 550 1587 562 
Q 1925 575 2125 837 
Q 2325 1100 2300 1437 
Q 2275 1775 2037 1962 
Q 1800 2150 1275 2225 
L 1275 2550 
Q 1800 2600 2037 2825 
Q 2275 3050 2250 3412 
Q 2225 3775 1925 3937 
Q 1625 4100 1287 3975 
Q 950 3850 750 3275 
L 300 3350 
Q 450 3800 712 4100 
Q 975 4400 1425 4450 
Q 1875 4500 2212 4337 
Q 2550 4175 2687 3837 
Q 2825 3500 2725 3100 
Q 2625 2700 2150 2400 
Q 2500 2250 2687 1950 
Q 2875 1650 2812 1162 
Q 2750 675 2375 375 
Q 2000 75 1525 87 
Q 1050 100 700 387 
Q 350 675 250 1225 
z
" transform="scale(0.015625)"/>
       </defs>
       <use xlink:href="#SimHei-5b"/>
       <use xlink:href="#SimHei-35" x="50"/>
       <use xlink:href="#SimHei-38" x="100"/>
       <use xlink:href="#SimHei-2e" x="150"/>
       <use xlink:href="#SimHei-39" x="200"/>
       <use xlink:href="#SimHei-2c" x="250"/>
       <use xlink:href="#SimHei-20" x="300"/>
       <use xlink:href="#SimHei-38" x="350"/>
       <use xlink:href="#SimHei-34" x="400"/>
       <use xlink:href="#SimHei-2e" x="450"/>
       <use xlink:href="#SimHei-33" x="500"/>
       <use xlink:href="#SimHei-5d" x="550"/>
      </g>
     </g>
    </g>
    <g id="xtick_4">
     <g id="line2d_4">
      <path d="M 369 218.16 
L 420.395707 59.98028 
" clip-path="url(#p76d00ca76b)" style="fill: none; stroke: #d3d3d3; stroke-width: 0.8; stroke-linecap: square"/>
     </g>
     <g id="text_4">
      <!-- Deformation -->
      <g transform="translate(424.721944 44.352989) scale(0.1 -0.1)">
       <defs>
        <path id="SimHei-44" d="M 2925 2250 
Q 2925 1100 2437 612 
Q 1950 125 1125 125 
L 275 125 
L 275 4400 
L 1125 4400 
Q 2050 4400 2487 3900 
Q 2925 3400 2925 2250 
z
M 2325 2250 
Q 2325 3175 2025 3550 
Q 1725 3925 1125 3925 
L 850 3925 
L 850 600 
L 1125 600 
Q 1725 600 2025 962 
Q 2325 1325 2325 2250 
z
" transform="scale(0.015625)"/>
        <path id="SimHei-66" d="M 2850 3825 
Q 2725 3900 2550 3950 
Q 2375 4000 2100 4000 
Q 1825 4000 1725 3862 
Q 1625 3725 1625 3525 
L 1625 2925 
L 2650 2925 
L 2650 2525 
L 1625 2525 
L 1625 125 
L 1125 125 
L 1125 2525 
L 275 2525 
L 275 2925 
L 1125 2925 
L 1125 3500 
Q 1125 3950 1400 4200 
Q 1675 4450 2125 4450 
Q 2400 4450 2562 4412 
Q 2725 4375 2850 4325 
L 2850 3825 
z
" transform="scale(0.015625)"/>
       </defs>
       <use xlink:href="#SimHei-44"/>
       <use xlink:href="#SimHei-65" x="50"/>
       <use xlink:href="#SimHei-66" x="100"/>
       <use xlink:href="#SimHei-6f" x="150"/>
       <use xlink:href="#SimHei-72" x="200"/>
       <use xlink:href="#SimHei-6d" x="250"/>
       <use xlink:href="#SimHei-61" x="300"/>
       <use xlink:href="#SimHei-74" x="350"/>
       <use xlink:href="#SimHei-69" x="400"/>
       <use xlink:href="#SimHei-6f" x="450"/>
       <use xlink:href="#SimHei-6e" x="500"/>
      </g>
      <!-- [55.5, 81.1] -->
      <g transform="translate(424.721944 54.602989) scale(0.1 -0.1)">
       <use xlink:href="#SimHei-5b"/>
       <use xlink:href="#SimHei-35" x="50"/>
       <use xlink:href="#SimHei-35" x="100"/>
       <use xlink:href="#SimHei-2e" x="150"/>
       <use xlink:href="#SimHei-35" x="200"/>
       <use xlink:href="#SimHei-2c" x="250"/>
       <use xlink:href="#SimHei-20" x="300"/>
       <use xlink:href="#SimHei-38" x="350"/>
       <use xlink:href="#SimHei-31" x="400"/>
       <use xlink:href="#SimHei-2e" x="450"/>
       <use xlink:href="#SimHei-31" x="500"/>
       <use xlink:href="#SimHei-5d" x="550"/>
      </g>
     </g>
    </g>
    <g id="xtick_5">
     <g id="line2d_5">
      <path d="M 369 218.16 
L 351.614826 52.751118 
" clip-path="url(#p76d00ca76b)" style="fill: none; stroke: #d3d3d3; stroke-width: 0.8; stroke-linecap: square"/>
     </g>
     <g id="text_5">
      <!-- Fast Motion -->
      <g transform="translate(322.651428 36.515312) scale(0.1 -0.1)">
       <defs>
        <path id="SimHei-46" d="M 2925 3925 
L 875 3925 
L 875 2525 
L 2425 2525 
L 2425 2050 
L 875 2050 
L 875 125 
L 300 125 
L 300 4400 
L 2925 4400 
L 2925 3925 
z
" transform="scale(0.015625)"/>
       </defs>
       <use xlink:href="#SimHei-46"/>
       <use xlink:href="#SimHei-61" x="50"/>
       <use xlink:href="#SimHei-73" x="100"/>
       <use xlink:href="#SimHei-74" x="150"/>
       <use xlink:href="#SimHei-20" x="200"/>
       <use xlink:href="#SimHei-4d" x="250"/>
       <use xlink:href="#SimHei-6f" x="300"/>
       <use xlink:href="#SimHei-74" x="350"/>
       <use xlink:href="#SimHei-69" x="400"/>
       <use xlink:href="#SimHei-6f" x="450"/>
       <use xlink:href="#SimHei-6e" x="500"/>
      </g>
      <!-- [37.0, 68.2] -->
      <g transform="translate(320.151428 46.765312) scale(0.1 -0.1)">
       <defs>
        <path id="SimHei-32" d="M 300 250 
Q 325 625 650 925 
Q 975 1225 1475 1862 
Q 1975 2500 2125 2850 
Q 2275 3200 2237 3450 
Q 2200 3700 2000 3862 
Q 1800 4025 1537 4000 
Q 1275 3975 1037 3800 
Q 800 3625 675 3275 
L 200 3350 
Q 400 3925 712 4187 
Q 1025 4450 1450 4475 
Q 1700 4500 1900 4462 
Q 2100 4425 2312 4287 
Q 2525 4150 2662 3875 
Q 2800 3600 2762 3212 
Q 2725 2825 2375 2287 
Q 2025 1750 1025 600 
L 2825 600 
L 2825 150 
L 300 150 
L 300 250 
z
" transform="scale(0.015625)"/>
       </defs>
       <use xlink:href="#SimHei-5b"/>
       <use xlink:href="#SimHei-33" x="50"/>
       <use xlink:href="#SimHei-37" x="100"/>
       <use xlink:href="#SimHei-2e" x="150"/>
       <use xlink:href="#SimHei-30" x="200"/>
       <use xlink:href="#SimHei-2c" x="250"/>
       <use xlink:href="#SimHei-20" x="300"/>
       <use xlink:href="#SimHei-36" x="350"/>
       <use xlink:href="#SimHei-38" x="400"/>
       <use xlink:href="#SimHei-2e" x="450"/>
       <use xlink:href="#SimHei-32" x="500"/>
       <use xlink:href="#SimHei-5d" x="550"/>
      </g>
     </g>
    </g>
    <g id="xtick_6">
     <g id="line2d_6">
      <path d="M 369 218.16 
L 285.84 74.122655 
" clip-path="url(#p76d00ca76b)" style="fill: none; stroke: #d3d3d3; stroke-width: 0.8; stroke-linecap: square"/>
     </g>
     <g id="text_6">
      <!-- Full Occlusion -->
      <g transform="translate(208.84 59.685799) scale(0.1 -0.1)">
       <defs>
        <path id="SimHei-4f" d="M 2950 2275 
Q 2950 1100 2587 587 
Q 2225 75 1575 75 
Q 925 75 550 587 
Q 175 1100 175 2275 
Q 175 3450 550 3950 
Q 925 4450 1575 4450 
Q 2225 4450 2587 3950 
Q 2950 3450 2950 2275 
z
M 2350 2275 
Q 2350 3325 2125 3650 
Q 1900 3975 1575 3975 
Q 1250 3975 1012 3650 
Q 775 3325 775 2275 
Q 775 1225 1012 887 
Q 1250 550 1575 550 
Q 1900 550 2125 887 
Q 2350 1225 2350 2275 
z
" transform="scale(0.015625)"/>
       </defs>
       <use xlink:href="#SimHei-46"/>
       <use xlink:href="#SimHei-75" x="50"/>
       <use xlink:href="#SimHei-6c" x="100"/>
       <use xlink:href="#SimHei-6c" x="150"/>
       <use xlink:href="#SimHei-20" x="200"/>
       <use xlink:href="#SimHei-4f" x="250"/>
       <use xlink:href="#SimHei-63" x="300"/>
       <use xlink:href="#SimHei-63" x="350"/>
       <use xlink:href="#SimHei-6c" x="400"/>
       <use xlink:href="#SimHei-75" x="450"/>
       <use xlink:href="#SimHei-73" x="500"/>
       <use xlink:href="#SimHei-69" x="550"/>
       <use xlink:href="#SimHei-6f" x="600"/>
       <use xlink:href="#SimHei-6e" x="650"/>
      </g>
      <!-- [43.2, 70.3] -->
      <g transform="translate(218.84 69.935799) scale(0.1 -0.1)">
       <use xlink:href="#SimHei-5b"/>
       <use xlink:href="#SimHei-34" x="50"/>
       <use xlink:href="#SimHei-33" x="100"/>
       <use xlink:href="#SimHei-2e" x="150"/>
       <use xlink:href="#SimHei-32" x="200"/>
       <use xlink:href="#SimHei-2c" x="250"/>
       <use xlink:href="#SimHei-20" x="300"/>
       <use xlink:href="#SimHei-37" x="350"/>
       <use xlink:href="#SimHei-30" x="400"/>
       <use xlink:href="#SimHei-2e" x="450"/>
       <use xlink:href="#SimHei-33" x="500"/>
       <use xlink:href="#SimHei-5d" x="550"/>
      </g>
     </g>
    </g>
    <g id="xtick_7">
     <g id="line2d_7">
      <path d="M 369 218.16 
L 234.444293 120.399557 
" clip-path="url(#p76d00ca76b)" style="fill: none; stroke: #d3d3d3; stroke-width: 0.8; stroke-linecap: square"/>
     </g>
     <g id="text_7">
      <!-- Illumination Variation -->
      <g transform="translate(113.118056 109.858063) scale(0.1 -0.1)">
       <defs>
        <path id="SimHei-49" d="M 1850 125 
L 1275 125 
L 1275 4400 
L 1850 4400 
L 1850 125 
z
" transform="scale(0.015625)"/>
        <path id="SimHei-56" d="M 3050 4400 
L 1800 75 
L 1300 75 
L 50 4400 
L 650 4400 
L 1525 1125 
L 1575 1125 
L 2450 4400 
L 3050 4400 
z
" transform="scale(0.015625)"/>
       </defs>
       <use xlink:href="#SimHei-49"/>
       <use xlink:href="#SimHei-6c" x="50"/>
       <use xlink:href="#SimHei-6c" x="100"/>
       <use xlink:href="#SimHei-75" x="150"/>
       <use xlink:href="#SimHei-6d" x="200"/>
       <use xlink:href="#SimHei-69" x="250"/>
       <use xlink:href="#SimHei-6e" x="300"/>
       <use xlink:href="#SimHei-61" x="350"/>
       <use xlink:href="#SimHei-74" x="400"/>
       <use xlink:href="#SimHei-69" x="450"/>
       <use xlink:href="#SimHei-6f" x="500"/>
       <use xlink:href="#SimHei-6e" x="550"/>
       <use xlink:href="#SimHei-20" x="600"/>
       <use xlink:href="#SimHei-56" x="650"/>
       <use xlink:href="#SimHei-61" x="700"/>
       <use xlink:href="#SimHei-72" x="750"/>
       <use xlink:href="#SimHei-69" x="800"/>
       <use xlink:href="#SimHei-61" x="850"/>
       <use xlink:href="#SimHei-74" x="900"/>
       <use xlink:href="#SimHei-69" x="950"/>
       <use xlink:href="#SimHei-6f" x="1000"/>
       <use xlink:href="#SimHei-6e" x="1050"/>
      </g>
      <!-- [57.6, 83.1] -->
      <g transform="translate(163.118056 120.108063) scale(0.1 -0.1)">
       <use xlink:href="#SimHei-5b"/>
       <use xlink:href="#SimHei-35" x="50"/>
       <use xlink:href="#SimHei-37" x="100"/>
       <use xlink:href="#SimHei-2e" x="150"/>
       <use xlink:href="#SimHei-36" x="200"/>
       <use xlink:href="#SimHei-2c" x="250"/>
       <use xlink:href="#SimHei-20" x="300"/>
       <use xlink:href="#SimHei-38" x="350"/>
       <use xlink:href="#SimHei-33" x="400"/>
       <use xlink:href="#SimHei-2e" x="450"/>
       <use xlink:href="#SimHei-31" x="500"/>
       <use xlink:href="#SimHei-5d" x="550"/>
      </g>
     </g>
    </g>
    <g id="xtick_8">
     <g id="line2d_8">
      <path d="M 369 218.16 
L 206.314491 183.580128 
" clip-path="url(#p76d00ca76b)" style="fill: none; stroke: #d3d3d3; stroke-width: 0.8; stroke-linecap: square"/>
     </g>
     <g id="text_8">
      <!-- Low Resolution -->
      <g transform="translate(122.620425 178.356864) scale(0.1 -0.1)">
       <defs>
        <path id="SimHei-4c" d="M 2900 125 
L 300 125 
L 300 4400 
L 875 4400 
L 875 600 
L 2900 600 
L 2900 125 
z
" transform="scale(0.015625)"/>
        <path id="SimHei-77" d="M 3075 2925 
L 2450 75 
L 1975 75 
L 1575 2250 
L 1525 2250 
L 1125 75 
L 650 75 
L 25 2925 
L 550 2925 
L 875 1050 
L 925 1050 
L 1275 2925 
L 1825 2925 
L 2175 1050 
L 2225 1050 
L 2550 2925 
L 3075 2925 
z
" transform="scale(0.015625)"/>
       </defs>
       <use xlink:href="#SimHei-4c"/>
       <use xlink:href="#SimHei-6f" x="50"/>
       <use xlink:href="#SimHei-77" x="100"/>
       <use xlink:href="#SimHei-20" x="150"/>
       <use xlink:href="#SimHei-52" x="200"/>
       <use xlink:href="#SimHei-65" x="250"/>
       <use xlink:href="#SimHei-73" x="300"/>
       <use xlink:href="#SimHei-6f" x="350"/>
       <use xlink:href="#SimHei-6c" x="400"/>
       <use xlink:href="#SimHei-75" x="450"/>
       <use xlink:href="#SimHei-74" x="500"/>
       <use xlink:href="#SimHei-69" x="550"/>
       <use xlink:href="#SimHei-6f" x="600"/>
       <use xlink:href="#SimHei-6e" x="650"/>
      </g>
      <!-- [46.2, 72.3] -->
      <g transform="translate(132.620425 188.606864) scale(0.1 -0.1)">
       <use xlink:href="#SimHei-5b"/>
       <use xlink:href="#SimHei-34" x="50"/>
       <use xlink:href="#SimHei-36" x="100"/>
       <use xlink:href="#SimHei-2e" x="150"/>
       <use xlink:href="#SimHei-32" x="200"/>
       <use xlink:href="#SimHei-2c" x="250"/>
       <use xlink:href="#SimHei-20" x="300"/>
       <use xlink:href="#SimHei-37" x="350"/>
       <use xlink:href="#SimHei-32" x="400"/>
       <use xlink:href="#SimHei-2e" x="450"/>
       <use xlink:href="#SimHei-33" x="500"/>
       <use xlink:href="#SimHei-5d" x="550"/>
      </g>
     </g>
    </g>
    <g id="xtick_9">
     <g id="line2d_9">
      <path d="M 369 218.16 
L 206.314491 252.739872 
" clip-path="url(#p76d00ca76b)" style="fill: none; stroke: #d3d3d3; stroke-width: 0.8; stroke-linecap: square"/>
     </g>
     <g id="text_9">
      <!-- Motion Blur -->
      <g transform="translate(137.620425 253.338136) scale(0.1 -0.1)">
       <use xlink:href="#SimHei-4d"/>
       <use xlink:href="#SimHei-6f" x="50"/>
       <use xlink:href="#SimHei-74" x="100"/>
       <use xlink:href="#SimHei-69" x="150"/>
       <use xlink:href="#SimHei-6f" x="200"/>
       <use xlink:href="#SimHei-6e" x="250"/>
       <use xlink:href="#SimHei-20" x="300"/>
       <use xlink:href="#SimHei-42" x="350"/>
       <use xlink:href="#SimHei-6c" x="400"/>
       <use xlink:href="#SimHei-75" x="450"/>
       <use xlink:href="#SimHei-72" x="500"/>
      </g>
      <!-- [52.7, 76.8] -->
      <g transform="translate(132.620425 263.588136) scale(0.1 -0.1)">
       <use xlink:href="#SimHei-5b"/>
       <use xlink:href="#SimHei-35" x="50"/>
       <use xlink:href="#SimHei-32" x="100"/>
       <use xlink:href="#SimHei-2e" x="150"/>
       <use xlink:href="#SimHei-37" x="200"/>
       <use xlink:href="#SimHei-2c" x="250"/>
       <use xlink:href="#SimHei-20" x="300"/>
       <use xlink:href="#SimHei-37" x="350"/>
       <use xlink:href="#SimHei-36" x="400"/>
       <use xlink:href="#SimHei-2e" x="450"/>
       <use xlink:href="#SimHei-38" x="500"/>
       <use xlink:href="#SimHei-5d" x="550"/>
      </g>
     </g>
    </g>
    <g id="xtick_10">
     <g id="line2d_10">
      <path d="M 369 218.16 
L 234.444293 315.920443 
" clip-path="url(#p76d00ca76b)" style="fill: none; stroke: #d3d3d3; stroke-width: 0.8; stroke-linecap: square"/>
     </g>
     <g id="text_10">
      <!-- Out-of-View -->
      <g transform="translate(168.118056 321.836937) scale(0.1 -0.1)">
       <defs>
        <path id="SimHei-2d" d="M 2975 2125 
L 125 2125 
L 125 2525 
L 2975 2525 
L 2975 2125 
z
" transform="scale(0.015625)"/>
       </defs>
       <use xlink:href="#SimHei-4f"/>
       <use xlink:href="#SimHei-75" x="50"/>
       <use xlink:href="#SimHei-74" x="100"/>
       <use xlink:href="#SimHei-2d" x="150"/>
       <use xlink:href="#SimHei-6f" x="200"/>
       <use xlink:href="#SimHei-66" x="250"/>
       <use xlink:href="#SimHei-2d" x="300"/>
       <use xlink:href="#SimHei-56" x="350"/>
       <use xlink:href="#SimHei-69" x="400"/>
       <use xlink:href="#SimHei-65" x="450"/>
       <use xlink:href="#SimHei-77" x="500"/>
      </g>
      <!-- [47.3, 75.1] -->
      <g transform="translate(163.118056 332.086937) scale(0.1 -0.1)">
       <use xlink:href="#SimHei-5b"/>
       <use xlink:href="#SimHei-34" x="50"/>
       <use xlink:href="#SimHei-37" x="100"/>
       <use xlink:href="#SimHei-2e" x="150"/>
       <use xlink:href="#SimHei-33" x="200"/>
       <use xlink:href="#SimHei-2c" x="250"/>
       <use xlink:href="#SimHei-20" x="300"/>
       <use xlink:href="#SimHei-37" x="350"/>
       <use xlink:href="#SimHei-35" x="400"/>
       <use xlink:href="#SimHei-2e" x="450"/>
       <use xlink:href="#SimHei-31" x="500"/>
       <use xlink:href="#SimHei-5d" x="550"/>
      </g>
     </g>
    </g>
    <g id="xtick_11">
     <g id="line2d_11">
      <path d="M 369 218.16 
L 285.84 362.197345 
" clip-path="url(#p76d00ca76b)" style="fill: none; stroke: #d3d3d3; stroke-width: 0.8; stroke-linecap: square"/>
     </g>
     <g id="text_11">
      <!-- Overall -->
      <g transform="translate(243.84 372.009201) scale(0.1 -0.1)">
       <defs>
        <path id="SimHei-76" d="M 2875 2925 
L 1825 75 
L 1275 75 
L 225 2925 
L 750 2925 
L 1525 750 
L 1575 750 
L 2350 2925 
L 2875 2925 
z
" transform="scale(0.015625)"/>
       </defs>
       <use xlink:href="#SimHei-4f"/>
       <use xlink:href="#SimHei-76" x="50"/>
       <use xlink:href="#SimHei-65" x="100"/>
       <use xlink:href="#SimHei-72" x="150"/>
       <use xlink:href="#SimHei-61" x="200"/>
       <use xlink:href="#SimHei-6c" x="250"/>
       <use xlink:href="#SimHei-6c" x="300"/>
      </g>
      <!-- [53.6, 79.7] -->
      <g transform="translate(218.84 382.259201) scale(0.1 -0.1)">
       <use xlink:href="#SimHei-5b"/>
       <use xlink:href="#SimHei-35" x="50"/>
       <use xlink:href="#SimHei-33" x="100"/>
       <use xlink:href="#SimHei-2e" x="150"/>
       <use xlink:href="#SimHei-36" x="200"/>
       <use xlink:href="#SimHei-2c" x="250"/>
       <use xlink:href="#SimHei-20" x="300"/>
       <use xlink:href="#SimHei-37" x="350"/>
       <use xlink:href="#SimHei-39" x="400"/>
       <use xlink:href="#SimHei-2e" x="450"/>
       <use xlink:href="#SimHei-37" x="500"/>
       <use xlink:href="#SimHei-5d" x="550"/>
      </g>
     </g>
    </g>
    <g id="xtick_12">
     <g id="line2d_12">
      <path d="M 369 218.16 
L 351.614826 383.568882 
" clip-path="url(#p76d00ca76b)" style="fill: none; stroke: #d3d3d3; stroke-width: 0.8; stroke-linecap: square"/>
     </g>
     <g id="text_12">
      <!-- Partial Occlusion -->
      <g transform="translate(307.651428 395.179688) scale(0.1 -0.1)">
       <defs>
        <path id="SimHei-50" d="M 2950 3100 
Q 2950 2500 2600 2150 
Q 2250 1800 1625 1800 
L 900 1800 
L 900 125 
L 325 125 
L 325 4400 
L 1625 4400 
Q 2250 4400 2600 4050 
Q 2950 3700 2950 3100 
z
M 2375 3100 
Q 2375 3575 2150 3750 
Q 1925 3925 1475 3925 
L 900 3925 
L 900 2275 
L 1475 2275 
Q 1925 2275 2150 2450 
Q 2375 2625 2375 3100 
z
" transform="scale(0.015625)"/>
       </defs>
       <use xlink:href="#SimHei-50"/>
       <use xlink:href="#SimHei-61" x="50"/>
       <use xlink:href="#SimHei-72" x="100"/>
       <use xlink:href="#SimHei-74" x="150"/>
       <use xlink:href="#SimHei-69" x="200"/>
       <use xlink:href="#SimHei-61" x="250"/>
       <use xlink:href="#SimHei-6c" x="300"/>
       <use xlink:href="#SimHei-20" x="350"/>
       <use xlink:href="#SimHei-4f" x="400"/>
       <use xlink:href="#SimHei-63" x="450"/>
       <use xlink:href="#SimHei-63" x="500"/>
       <use xlink:href="#SimHei-6c" x="550"/>
       <use xlink:href="#SimHei-75" x="600"/>
       <use xlink:href="#SimHei-73" x="650"/>
       <use xlink:href="#SimHei-69" x="700"/>
       <use xlink:href="#SimHei-6f" x="750"/>
       <use xlink:href="#SimHei-6e" x="800"/>
      </g>
      <!-- [48.9, 76.5] -->
      <g transform="translate(320.151428 405.429688) scale(0.1 -0.1)">
       <use xlink:href="#SimHei-5b"/>
       <use xlink:href="#SimHei-34" x="50"/>
       <use xlink:href="#SimHei-38" x="100"/>
       <use xlink:href="#SimHei-2e" x="150"/>
       <use xlink:href="#SimHei-39" x="200"/>
       <use xlink:href="#SimHei-2c" x="250"/>
       <use xlink:href="#SimHei-20" x="300"/>
       <use xlink:href="#SimHei-37" x="350"/>
       <use xlink:href="#SimHei-36" x="400"/>
       <use xlink:href="#SimHei-2e" x="450"/>
       <use xlink:href="#SimHei-35" x="500"/>
       <use xlink:href="#SimHei-5d" x="550"/>
      </g>
     </g>
    </g>
    <g id="xtick_13">
     <g id="line2d_13">
      <path d="M 369 218.16 
L 420.395707 376.33972 
" clip-path="url(#p76d00ca76b)" style="fill: none; stroke: #d3d3d3; stroke-width: 0.8; stroke-linecap: square"/>
     </g>
     <g id="text_13">
      <!-- Rotation -->
      <g transform="translate(424.721944 387.342011) scale(0.1 -0.1)">
       <use xlink:href="#SimHei-52"/>
       <use xlink:href="#SimHei-6f" x="50"/>
       <use xlink:href="#SimHei-74" x="100"/>
       <use xlink:href="#SimHei-61" x="150"/>
       <use xlink:href="#SimHei-74" x="200"/>
       <use xlink:href="#SimHei-69" x="250"/>
       <use xlink:href="#SimHei-6f" x="300"/>
       <use xlink:href="#SimHei-6e" x="350"/>
      </g>
      <!-- [51.3, 78.3] -->
      <g transform="translate(424.721944 397.592011) scale(0.1 -0.1)">
       <use xlink:href="#SimHei-5b"/>
       <use xlink:href="#SimHei-35" x="50"/>
       <use xlink:href="#SimHei-31" x="100"/>
       <use xlink:href="#SimHei-2e" x="150"/>
       <use xlink:href="#SimHei-33" x="200"/>
       <use xlink:href="#SimHei-2c" x="250"/>
       <use xlink:href="#SimHei-20" x="300"/>
       <use xlink:href="#SimHei-37" x="350"/>
       <use xlink:href="#SimHei-38" x="400"/>
       <use xlink:href="#SimHei-2e" x="450"/>
       <use xlink:href="#SimHei-33" x="500"/>
       <use xlink:href="#SimHei-5d" x="550"/>
      </g>
     </g>
    </g>
    <g id="xtick_14">
     <g id="line2d_14">
      <path d="M 369 218.16 
L 480.289802 341.759847 
" clip-path="url(#p76d00ca76b)" style="fill: none; stroke: #d3d3d3; stroke-width: 0.8; stroke-linecap: square"/>
     </g>
     <g id="text_14">
      <!-- Scale Variation -->
      <g transform="translate(489.657631 349.851375) scale(0.1 -0.1)">
       <defs>
        <path id="SimHei-53" d="M 2900 1325 
Q 2900 750 2537 412 
Q 2175 75 1550 75 
Q 925 75 575 425 
Q 225 775 225 1300 
L 225 1475 
L 800 1475 
L 800 1325 
Q 800 950 1025 750 
Q 1250 550 1550 550 
Q 1950 550 2137 762 
Q 2325 975 2325 1275 
Q 2325 1525 2100 1737 
Q 1875 1950 1450 2125 
Q 850 2350 587 2625 
Q 325 2900 325 3275 
Q 325 3800 687 4125 
Q 1050 4450 1550 4450 
Q 2200 4450 2487 4062 
Q 2775 3675 2775 3225 
L 2200 3225 
Q 2225 3500 2050 3725 
Q 1875 3950 1550 3950 
Q 1250 3950 1075 3787 
Q 900 3625 900 3350 
Q 900 3125 1037 2962 
Q 1175 2800 1750 2575 
Q 2300 2350 2600 2037 
Q 2900 1725 2900 1325 
z
" transform="scale(0.015625)"/>
       </defs>
       <use xlink:href="#SimHei-53"/>
       <use xlink:href="#SimHei-63" x="50"/>
       <use xlink:href="#SimHei-61" x="100"/>
       <use xlink:href="#SimHei-6c" x="150"/>
       <use xlink:href="#SimHei-65" x="200"/>
       <use xlink:href="#SimHei-20" x="250"/>
       <use xlink:href="#SimHei-56" x="300"/>
       <use xlink:href="#SimHei-61" x="350"/>
       <use xlink:href="#SimHei-72" x="400"/>
       <use xlink:href="#SimHei-69" x="450"/>
       <use xlink:href="#SimHei-61" x="500"/>
       <use xlink:href="#SimHei-74" x="550"/>
       <use xlink:href="#SimHei-69" x="600"/>
       <use xlink:href="#SimHei-6f" x="650"/>
       <use xlink:href="#SimHei-6e" x="700"/>
      </g>
      <!-- [53.3, 79.4] -->
      <g transform="translate(489.657631 360.101375) scale(0.1 -0.1)">
       <use xlink:href="#SimHei-5b"/>
       <use xlink:href="#SimHei-35" x="50"/>
       <use xlink:href="#SimHei-33" x="100"/>
       <use xlink:href="#SimHei-2e" x="150"/>
       <use xlink:href="#SimHei-33" x="200"/>
       <use xlink:href="#SimHei-2c" x="250"/>
       <use xlink:href="#SimHei-20" x="300"/>
       <use xlink:href="#SimHei-37" x="350"/>
       <use xlink:href="#SimHei-39" x="400"/>
       <use xlink:href="#SimHei-2e" x="450"/>
       <use xlink:href="#SimHei-34" x="500"/>
       <use xlink:href="#SimHei-5d" x="550"/>
      </g>
     </g>
    </g>
    <g id="xtick_15">
     <g id="line2d_15">
      <path d="M 369 218.16 
L 520.940881 285.808438 
" clip-path="url(#p76d00ca76b)" style="fill: none; stroke: #d3d3d3; stroke-width: 0.8; stroke-linecap: square"/>
     </g>
     <g id="text_15">
      <!-- Viewpoint Change -->
      <g transform="translate(533.730517 289.229314) scale(0.1 -0.1)">
       <use xlink:href="#SimHei-56"/>
       <use xlink:href="#SimHei-69" x="50"/>
       <use xlink:href="#SimHei-65" x="100"/>
       <use xlink:href="#SimHei-77" x="150"/>
       <use xlink:href="#SimHei-70" x="200"/>
       <use xlink:href="#SimHei-6f" x="250"/>
       <use xlink:href="#SimHei-69" x="300"/>
       <use xlink:href="#SimHei-6e" x="350"/>
       <use xlink:href="#SimHei-74" x="400"/>
       <use xlink:href="#SimHei-20" x="450"/>
       <use xlink:href="#SimHei-43" x="500"/>
       <use xlink:href="#SimHei-68" x="550"/>
       <use xlink:href="#SimHei-61" x="600"/>
       <use xlink:href="#SimHei-6e" x="650"/>
       <use xlink:href="#SimHei-67" x="700"/>
       <use xlink:href="#SimHei-65" x="750"/>
      </g>
      <!-- [50.3, 80.0] -->
      <g transform="translate(533.730517 299.479314) scale(0.1 -0.1)">
       <use xlink:href="#SimHei-5b"/>
       <use xlink:href="#SimHei-35" x="50"/>
       <use xlink:href="#SimHei-30" x="100"/>
       <use xlink:href="#SimHei-2e" x="150"/>
       <use xlink:href="#SimHei-33" x="200"/>
       <use xlink:href="#SimHei-2c" x="250"/>
       <use xlink:href="#SimHei-20" x="300"/>
       <use xlink:href="#SimHei-38" x="350"/>
       <use xlink:href="#SimHei-30" x="400"/>
       <use xlink:href="#SimHei-2e" x="450"/>
       <use xlink:href="#SimHei-30" x="500"/>
       <use xlink:href="#SimHei-5d" x="550"/>
      </g>
     </g>
    </g>
   </g>
   <g id="matplotlib.axis_2">
    <g id="ytick_1">
     <g id="line2d_16">
      <path d="M 388.191138 218.16 
C 388.191138 215.639843 387.694722 213.144191 386.7303 210.815869 
C 385.765877 208.487548 384.352204 206.371836 382.570184 204.589816 
C 380.788164 202.807796 378.672452 201.394123 376.344131 200.4297 
C 374.015809 199.465278 371.520157 198.968862 369 198.968862 
C 366.479843 198.968862 363.984191 199.465278 361.655869 200.4297 
C 359.327548 201.394123 357.211836 202.807796 355.429816 204.589816 
C 353.647796 206.371836 352.234123 208.487548 351.2697 210.815869 
C 350.305278 213.144191 349.808862 215.639843 349.808862 218.16 
C 349.808862 220.680157 350.305278 223.175809 351.2697 225.504131 
C 352.234123 227.832452 353.647796 229.948164 355.429816 231.730184 
C 357.211836 233.512204 359.327548 234.925877 361.655869 235.8903 
C 363.984191 236.854722 366.479843 237.351138 369 237.351138 
C 371.520157 237.351138 374.015809 236.854722 376.344131 235.8903 
C 378.672452 234.925877 380.788164 233.512204 382.570184 231.730184 
C 384.352204 229.948164 385.765877 227.832452 386.7303 225.504131 
C 387.694722 223.175809 388.191138 220.680157 388.191138 218.16 
" clip-path="url(#p76d00ca76b)" style="fill: none; stroke: #d3d3d3; stroke-width: 0.8; stroke-linecap: square"/>
     </g>
     <g id="text_16">
      <!-- 10 -->
      <g transform="translate(386.7303 209.565869) scale(0.1 -0.1)">
       <use xlink:href="#SimHei-31"/>
       <use xlink:href="#SimHei-30" x="50"/>
      </g>
     </g>
    </g>
    <g id="ytick_2">
     <g id="line2d_17">
      <path d="M 407.382277 218.16 
C 407.382277 213.119686 406.389445 208.128382 404.4606 203.471739 
C 402.531755 198.815095 399.704409 194.583672 396.140368 191.019632 
C 392.576328 187.455591 388.344905 184.628245 383.688261 182.6994 
C 379.031618 180.770555 374.040314 179.777723 369 179.777723 
C 363.959686 179.777723 358.968382 180.770555 354.311739 182.6994 
C 349.655095 184.628245 345.423672 187.455591 341.859632 191.019632 
C 338.295591 194.583672 335.468245 198.815095 333.5394 203.471739 
C 331.610555 208.128382 330.617723 213.119686 330.617723 218.16 
C 330.617723 223.200314 331.610555 228.191618 333.5394 232.848261 
C 335.468245 237.504905 338.295591 241.736328 341.859632 245.300368 
C 345.423672 248.864409 349.655095 251.691755 354.311739 253.6206 
C 358.968382 255.549445 363.959686 256.542277 369 256.542277 
C 374.040314 256.542277 379.031618 255.549445 383.688261 253.6206 
C 388.344905 251.691755 392.576328 248.864409 396.140368 245.300368 
C 399.704409 241.736328 402.531755 237.504905 404.4606 232.848261 
C 406.389445 228.191618 407.382277 223.200314 407.382277 218.16 
" clip-path="url(#p76d00ca76b)" style="fill: none; stroke: #d3d3d3; stroke-width: 0.8; stroke-linecap: square"/>
     </g>
     <g id="text_17">
      <!-- 20 -->
      <g transform="translate(404.4606 202.221739) scale(0.1 -0.1)">
       <use xlink:href="#SimHei-32"/>
       <use xlink:href="#SimHei-30" x="50"/>
      </g>
     </g>
    </g>
    <g id="ytick_3">
     <g id="line2d_18">
      <path d="M 426.573415 218.16 
C 426.573415 210.599528 425.084167 203.112573 422.1909 196.127608 
C 419.297632 189.142643 415.056613 182.795509 409.710552 177.449448 
C 404.364491 172.103387 398.017357 167.862368 391.032392 164.9691 
C 384.047427 162.075833 376.560472 160.586585 369 160.586585 
C 361.439528 160.586585 353.952573 162.075833 346.967608 164.9691 
C 339.982643 167.862368 333.635509 172.103387 328.289448 177.449448 
C 322.943387 182.795509 318.702368 189.142643 315.8091 196.127608 
C 312.915833 203.112573 311.426585 210.599528 311.426585 218.16 
C 311.426585 225.720472 312.915833 233.207427 315.8091 240.192392 
C 318.702368 247.177357 322.943387 253.524491 328.289448 258.870552 
C 333.635509 264.216613 339.982643 268.457632 346.967608 271.3509 
C 353.952573 274.244167 361.439528 275.733415 369 275.733415 
C 376.560472 275.733415 384.047427 274.244167 391.032392 271.3509 
C 398.017357 268.457632 404.364491 264.216613 409.710552 258.870552 
C 415.056613 253.524491 419.297632 247.177357 422.1909 240.192392 
C 425.084167 233.207427 426.573415 225.720472 426.573415 218.16 
" clip-path="url(#p76d00ca76b)" style="fill: none; stroke: #d3d3d3; stroke-width: 0.8; stroke-linecap: square"/>
     </g>
     <g id="text_18">
      <!-- 30 -->
      <g transform="translate(422.1909 194.877608) scale(0.1 -0.1)">
       <use xlink:href="#SimHei-33"/>
       <use xlink:href="#SimHei-30" x="50"/>
      </g>
     </g>
    </g>
    <g id="ytick_4">
     <g id="line2d_19">
      <path d="M 445.764553 218.16 
C 445.764553 208.079371 443.778889 198.096764 439.921199 188.783477 
C 436.06351 179.470191 430.408817 171.007345 423.280736 163.879264 
C 416.152655 156.751183 407.689809 151.09649 398.376523 147.238801 
C 389.063236 143.381111 379.080629 141.395447 369 141.395447 
C 358.919371 141.395447 348.936764 143.381111 339.623477 147.238801 
C 330.310191 151.09649 321.847345 156.751183 314.719264 163.879264 
C 307.591183 171.007345 301.93649 179.470191 298.078801 188.783477 
C 294.221111 198.096764 292.235447 208.079371 292.235447 218.16 
C 292.235447 228.240629 294.221111 238.223236 298.078801 247.536523 
C 301.93649 256.849809 307.591183 265.312655 314.719264 272.440736 
C 321.847345 279.568817 330.310191 285.22351 339.623477 289.081199 
C 348.936764 292.938889 358.919371 294.924553 369 294.924553 
C 379.080629 294.924553 389.063236 292.938889 398.376523 289.081199 
C 407.689809 285.22351 416.152655 279.568817 423.280736 272.440736 
C 430.408817 265.312655 436.06351 256.849809 439.921199 247.536523 
C 443.778889 238.223236 445.764553 228.240629 445.764553 218.16 
" clip-path="url(#p76d00ca76b)" style="fill: none; stroke: #d3d3d3; stroke-width: 0.8; stroke-linecap: square"/>
     </g>
     <g id="text_19">
      <!-- 40 -->
      <g transform="translate(439.921199 187.533477) scale(0.1 -0.1)">
       <use xlink:href="#SimHei-34"/>
       <use xlink:href="#SimHei-30" x="50"/>
      </g>
     </g>
    </g>
    <g id="ytick_5">
     <g id="line2d_20">
      <path d="M 464.955691 218.16 
C 464.955691 205.559214 462.473611 193.080955 457.651499 181.439347 
C 452.829387 169.797738 445.761021 159.219181 436.85092 150.30908 
C 427.940819 141.398979 417.362262 134.330613 405.720653 129.508501 
C 394.079045 124.686389 381.600786 122.204309 369 122.204309 
C 356.399214 122.204309 343.920955 124.686389 332.279347 129.508501 
C 320.637738 134.330613 310.059181 141.398979 301.14908 150.30908 
C 292.238979 159.219181 285.170613 169.797738 280.348501 181.439347 
C 275.526389 193.080955 273.044309 205.559214 273.044309 218.16 
C 273.044309 230.760786 275.526389 243.239045 280.348501 254.880653 
C 285.170613 266.522262 292.238979 277.100819 301.14908 286.01092 
C 310.059181 294.921021 320.637738 301.989387 332.279347 306.811499 
C 343.920955 311.633611 356.399214 314.115691 369 314.115691 
C 381.600786 314.115691 394.079045 311.633611 405.720653 306.811499 
C 417.362262 301.989387 427.940819 294.921021 436.85092 286.01092 
C 445.761021 277.100819 452.829387 266.522262 457.651499 254.880653 
C 462.473611 243.239045 464.955691 230.760786 464.955691 218.16 
" clip-path="url(#p76d00ca76b)" style="fill: none; stroke: #d3d3d3; stroke-width: 0.8; stroke-linecap: square"/>
     </g>
     <g id="text_20">
      <!-- 50 -->
      <g transform="translate(457.651499 180.189347) scale(0.1 -0.1)">
       <use xlink:href="#SimHei-35"/>
       <use xlink:href="#SimHei-30" x="50"/>
      </g>
     </g>
    </g>
    <g id="ytick_6">
     <g id="line2d_21">
      <path d="M 484.14683 218.16 
C 484.14683 203.039057 481.168334 188.065146 475.381799 174.095216 
C 469.595265 160.125286 461.113226 147.431017 450.421104 136.738896 
C 439.728983 126.046774 427.034714 117.564735 413.064784 111.778201 
C 399.094854 105.991666 384.120943 103.01317 369 103.01317 
C 353.879057 103.01317 338.905146 105.991666 324.935216 111.778201 
C 310.965286 117.564735 298.271017 126.046774 287.578896 136.738896 
C 276.886774 147.431017 268.404735 160.125286 262.618201 174.095216 
C 256.831666 188.065146 253.85317 203.039057 253.85317 218.16 
C 253.85317 233.280943 256.831666 248.254854 262.618201 262.224784 
C 268.404735 276.194714 276.886774 288.888983 287.578896 299.581104 
C 298.271017 310.273226 310.965286 318.755265 324.935216 324.541799 
C 338.905146 330.328334 353.879057 333.30683 369 333.30683 
C 384.120943 333.30683 399.094854 330.328334 413.064784 324.541799 
C 427.034714 318.755265 439.728983 310.273226 450.421104 299.581104 
C 461.113226 288.888983 469.595265 276.194714 475.381799 262.224784 
C 481.168334 248.254854 484.14683 233.280943 484.14683 218.16 
" clip-path="url(#p76d00ca76b)" style="fill: none; stroke: #d3d3d3; stroke-width: 0.8; stroke-linecap: square"/>
     </g>
     <g id="text_21">
      <!-- 60 -->
      <g transform="translate(475.381799 172.845216) scale(0.1 -0.1)">
       <use xlink:href="#SimHei-36"/>
       <use xlink:href="#SimHei-30" x="50"/>
      </g>
     </g>
    </g>
    <g id="ytick_7">
     <g id="line2d_22">
      <path d="M 503.337968 218.16 
C 503.337968 200.5189 499.863056 183.049337 493.112099 166.751085 
C 486.361142 150.452834 476.46543 135.642853 463.991288 123.168712 
C 451.517147 110.69457 436.707166 100.798858 420.408915 94.047901 
C 404.110663 87.296944 386.6411 83.822032 369 83.822032 
C 351.3589 83.822032 333.889337 87.296944 317.591085 94.047901 
C 301.292834 100.798858 286.482853 110.69457 274.008712 123.168712 
C 261.53457 135.642853 251.638858 150.452834 244.887901 166.751085 
C 238.136944 183.049337 234.662032 200.5189 234.662032 218.16 
C 234.662032 235.8011 238.136944 253.270663 244.887901 269.568915 
C 251.638858 285.867166 261.53457 300.677147 274.008712 313.151288 
C 286.482853 325.62543 301.292834 335.521142 317.591085 342.272099 
C 333.889337 349.023056 351.3589 352.497968 369 352.497968 
C 386.6411 352.497968 404.110663 349.023056 420.408915 342.272099 
C 436.707166 335.521142 451.517147 325.62543 463.991288 313.151288 
C 476.46543 300.677147 486.361142 285.867166 493.112099 269.568915 
C 499.863056 253.270663 503.337968 235.8011 503.337968 218.16 
" clip-path="url(#p76d00ca76b)" style="fill: none; stroke: #d3d3d3; stroke-width: 0.8; stroke-linecap: square"/>
     </g>
     <g id="text_22">
      <!-- 70 -->
      <g transform="translate(493.112099 165.501085) scale(0.1 -0.1)">
       <use xlink:href="#SimHei-37"/>
       <use xlink:href="#SimHei-30" x="50"/>
      </g>
     </g>
    </g>
    <g id="ytick_8">
     <g id="line2d_23">
      <path d="M 522.529106 218.16 
C 522.529106 197.998742 518.557778 178.033528 510.842399 159.406955 
C 503.12702 140.780381 491.817634 123.85469 477.561472 109.598528 
C 463.30531 95.342366 446.379619 84.03298 427.753045 76.317601 
C 409.126472 68.602222 389.161258 64.630894 369 64.630894 
C 348.838742 64.630894 328.873528 68.602222 310.246955 76.317601 
C 291.620381 84.03298 274.69469 95.342366 260.438528 109.598528 
C 246.182366 123.85469 234.87298 140.780381 227.157601 159.406955 
C 219.442222 178.033528 215.470894 197.998742 215.470894 218.16 
C 215.470894 238.321258 219.442222 258.286472 227.157601 276.913045 
C 234.87298 295.539619 246.182366 312.46531 260.438528 326.721472 
C 274.69469 340.977634 291.620381 352.28702 310.246955 360.002399 
C 328.873528 367.717778 348.838742 371.689106 369 371.689106 
C 389.161258 371.689106 409.126472 367.717778 427.753045 360.002399 
C 446.379619 352.28702 463.30531 340.977634 477.561472 326.721472 
C 491.817634 312.46531 503.12702 295.539619 510.842399 276.913045 
C 518.557778 258.286472 522.529106 238.321258 522.529106 218.16 
" clip-path="url(#p76d00ca76b)" style="fill: none; stroke: #d3d3d3; stroke-width: 0.8; stroke-linecap: square"/>
     </g>
     <g id="text_23">
      <!-- 80 -->
      <g transform="translate(510.842399 158.156955) scale(0.1 -0.1)">
       <use xlink:href="#SimHei-38"/>
       <use xlink:href="#SimHei-30" x="50"/>
      </g>
     </g>
    </g>
   </g>
   <g id="line2d_24">
    <path d="M 507.176196 218.16 
L 482.431893 167.656868 
L 467.108128 109.199885 
L 413.359301 81.636109 
L 357.06418 104.598257 
L 307.684313 111.958115 
L 251.623765 132.881173 
L 244.167757 191.626088 
L 234.031003 246.848546 
L 260.78408 296.783468 
L 298.472567 340.317098 
L 354.957859 351.762051 
L 412.173224 351.03352 
L 463.255715 322.841576 
L 494.879596 274.205207 
L 507.176196 218.16 
" clip-path="url(#p76d00ca76b)" style="fill: none; stroke: #ffff00; stroke-opacity: 0.8; stroke-width: 1.5; stroke-linecap: square"/>
    <defs>
     <path id="medc236d5a6" d="M 0 -3.5 
L -3.5 3.5 
L 3.5 3.5 
z
" style="stroke: #ffff00; stroke-opacity: 0.8; stroke-linejoin: miter"/>
    </defs>
    <g clip-path="url(#p76d00ca76b)">
     <use xlink:href="#medc236d5a6" x="507.176196" y="218.16" style="fill: #ffff00; fill-opacity: 0.8; stroke: #ffff00; stroke-opacity: 0.8; stroke-linejoin: miter"/>
     <use xlink:href="#medc236d5a6" x="482.431893" y="167.656868" style="fill: #ffff00; fill-opacity: 0.8; stroke: #ffff00; stroke-opacity: 0.8; stroke-linejoin: miter"/>
     <use xlink:href="#medc236d5a6" x="467.108128" y="109.199885" style="fill: #ffff00; fill-opacity: 0.8; stroke: #ffff00; stroke-opacity: 0.8; stroke-linejoin: miter"/>
     <use xlink:href="#medc236d5a6" x="413.359301" y="81.636109" style="fill: #ffff00; fill-opacity: 0.8; stroke: #ffff00; stroke-opacity: 0.8; stroke-linejoin: miter"/>
     <use xlink:href="#medc236d5a6" x="357.06418" y="104.598257" style="fill: #ffff00; fill-opacity: 0.8; stroke: #ffff00; stroke-opacity: 0.8; stroke-linejoin: miter"/>
     <use xlink:href="#medc236d5a6" x="307.684313" y="111.958115" style="fill: #ffff00; fill-opacity: 0.8; stroke: #ffff00; stroke-opacity: 0.8; stroke-linejoin: miter"/>
     <use xlink:href="#medc236d5a6" x="251.623765" y="132.881173" style="fill: #ffff00; fill-opacity: 0.8; stroke: #ffff00; stroke-opacity: 0.8; stroke-linejoin: miter"/>
     <use xlink:href="#medc236d5a6" x="244.167757" y="191.626088" style="fill: #ffff00; fill-opacity: 0.8; stroke: #ffff00; stroke-opacity: 0.8; stroke-linejoin: miter"/>
     <use xlink:href="#medc236d5a6" x="234.031003" y="246.848546" style="fill: #ffff00; fill-opacity: 0.8; stroke: #ffff00; stroke-opacity: 0.8; stroke-linejoin: miter"/>
     <use xlink:href="#medc236d5a6" x="260.78408" y="296.783468" style="fill: #ffff00; fill-opacity: 0.8; stroke: #ffff00; stroke-opacity: 0.8; stroke-linejoin: miter"/>
     <use xlink:href="#medc236d5a6" x="298.472567" y="340.317098" style="fill: #ffff00; fill-opacity: 0.8; stroke: #ffff00; stroke-opacity: 0.8; stroke-linejoin: miter"/>
     <use xlink:href="#medc236d5a6" x="354.957859" y="351.762051" style="fill: #ffff00; fill-opacity: 0.8; stroke: #ffff00; stroke-opacity: 0.8; stroke-linejoin: miter"/>
     <use xlink:href="#medc236d5a6" x="412.173224" y="351.03352" style="fill: #ffff00; fill-opacity: 0.8; stroke: #ffff00; stroke-opacity: 0.8; stroke-linejoin: miter"/>
     <use xlink:href="#medc236d5a6" x="463.255715" y="322.841576" style="fill: #ffff00; fill-opacity: 0.8; stroke: #ffff00; stroke-opacity: 0.8; stroke-linejoin: miter"/>
     <use xlink:href="#medc236d5a6" x="494.879596" y="274.205207" style="fill: #ffff00; fill-opacity: 0.8; stroke: #ffff00; stroke-opacity: 0.8; stroke-linejoin: miter"/>
     <use xlink:href="#medc236d5a6" x="507.176196" y="218.16" style="fill: #ffff00; fill-opacity: 0.8; stroke: #ffff00; stroke-opacity: 0.8; stroke-linejoin: miter"/>
    </g>
   </g>
   <g id="line2d_25">
    <path d="M 492.399019 218.16 
L 468.93227 173.667287 
L 458.504405 118.755288 
L 408.496383 96.602632 
L 358.08725 114.332121 
L 316.128414 126.583727 
L 257.523629 137.167675 
L 258.997452 194.778237 
L 248.485263 243.776198 
L 277.396854 284.713582 
L 305.381377 328.350688 
L 356.823457 334.012064 
L 406.835875 334.606848 
L 453.753095 312.287848 
L 487.516166 270.926797 
L 492.399019 218.16 
" clip-path="url(#p76d00ca76b)" style="fill: none; stroke: #ff0000; stroke-opacity: 0.8; stroke-width: 1.5; stroke-linecap: square"/>
    <defs>
     <path id="m589ca6e39a" d="M 0 -4.5 
L -3.897114 -2.25 
L -3.897114 2.25 
L -0 4.5 
L 3.897114 2.25 
L 3.897114 -2.25 
z
" style="stroke: #ff0000; stroke-opacity: 0.8; stroke-linejoin: miter"/>
    </defs>
    <g clip-path="url(#p76d00ca76b)">
     <use xlink:href="#m589ca6e39a" x="492.399019" y="218.16" style="fill: #ff0000; fill-opacity: 0.8; stroke: #ff0000; stroke-opacity: 0.8; stroke-linejoin: miter"/>
     <use xlink:href="#m589ca6e39a" x="468.93227" y="173.667287" style="fill: #ff0000; fill-opacity: 0.8; stroke: #ff0000; stroke-opacity: 0.8; stroke-linejoin: miter"/>
     <use xlink:href="#m589ca6e39a" x="458.504405" y="118.755288" style="fill: #ff0000; fill-opacity: 0.8; stroke: #ff0000; stroke-opacity: 0.8; stroke-linejoin: miter"/>
     <use xlink:href="#m589ca6e39a" x="408.496383" y="96.602632" style="fill: #ff0000; fill-opacity: 0.8; stroke: #ff0000; stroke-opacity: 0.8; stroke-linejoin: miter"/>
     <use xlink:href="#m589ca6e39a" x="358.08725" y="114.332121" style="fill: #ff0000; fill-opacity: 0.8; stroke: #ff0000; stroke-opacity: 0.8; stroke-linejoin: miter"/>
     <use xlink:href="#m589ca6e39a" x="316.128414" y="126.583727" style="fill: #ff0000; fill-opacity: 0.8; stroke: #ff0000; stroke-opacity: 0.8; stroke-linejoin: miter"/>
     <use xlink:href="#m589ca6e39a" x="257.523629" y="137.167675" style="fill: #ff0000; fill-opacity: 0.8; stroke: #ff0000; stroke-opacity: 0.8; stroke-linejoin: miter"/>
     <use xlink:href="#m589ca6e39a" x="258.997452" y="194.778237" style="fill: #ff0000; fill-opacity: 0.8; stroke: #ff0000; stroke-opacity: 0.8; stroke-linejoin: miter"/>
     <use xlink:href="#m589ca6e39a" x="248.485263" y="243.776198" style="fill: #ff0000; fill-opacity: 0.8; stroke: #ff0000; stroke-opacity: 0.8; stroke-linejoin: miter"/>
     <use xlink:href="#m589ca6e39a" x="277.396854" y="284.713582" style="fill: #ff0000; fill-opacity: 0.8; stroke: #ff0000; stroke-opacity: 0.8; stroke-linejoin: miter"/>
     <use xlink:href="#m589ca6e39a" x="305.381377" y="328.350688" style="fill: #ff0000; fill-opacity: 0.8; stroke: #ff0000; stroke-opacity: 0.8; stroke-linejoin: miter"/>
     <use xlink:href="#m589ca6e39a" x="356.823457" y="334.012064" style="fill: #ff0000; fill-opacity: 0.8; stroke: #ff0000; stroke-opacity: 0.8; stroke-linejoin: miter"/>
     <use xlink:href="#m589ca6e39a" x="406.835875" y="334.606848" style="fill: #ff0000; fill-opacity: 0.8; stroke: #ff0000; stroke-opacity: 0.8; stroke-linejoin: miter"/>
     <use xlink:href="#m589ca6e39a" x="453.753095" y="312.287848" style="fill: #ff0000; fill-opacity: 0.8; stroke: #ff0000; stroke-opacity: 0.8; stroke-linejoin: miter"/>
     <use xlink:href="#m589ca6e39a" x="487.516166" y="270.926797" style="fill: #ff0000; fill-opacity: 0.8; stroke: #ff0000; stroke-opacity: 0.8; stroke-linejoin: miter"/>
     <use xlink:href="#m589ca6e39a" x="492.399019" y="218.16" style="fill: #ff0000; fill-opacity: 0.8; stroke: #ff0000; stroke-opacity: 0.8; stroke-linejoin: miter"/>
    </g>
   </g>
   <g id="line2d_26">
    <path d="M 518.498967 218.16 
L 493.301718 162.817309 
L 477.252817 97.933067 
L 417.095446 70.137439 
L 355.318942 87.993431 
L 301.543149 101.321307 
L 239.979297 124.420972 
L 233.280133 189.311852 
L 224.832838 248.803676 
L 252.400063 302.874813 
L 292.523314 350.621506 
L 353.653946 364.167955 
L 415.434937 361.072041 
L 470.960541 331.398653 
L 509.255818 280.605913 
L 518.498967 218.16 
" clip-path="url(#p76d00ca76b)" style="fill: none; stroke: #ffc0cb; stroke-opacity: 0.8; stroke-width: 1.5; stroke-linecap: square"/>
    <defs>
     <path id="mc1eb2f89c9" d="M -0 3.5 
L 3.5 -3.5 
L -3.5 -3.5 
z
" style="stroke: #ffc0cb; stroke-opacity: 0.8; stroke-linejoin: miter"/>
    </defs>
    <g clip-path="url(#p76d00ca76b)">
     <use xlink:href="#mc1eb2f89c9" x="518.498967" y="218.16" style="fill: #ffc0cb; fill-opacity: 0.8; stroke: #ffc0cb; stroke-opacity: 0.8; stroke-linejoin: miter"/>
     <use xlink:href="#mc1eb2f89c9" x="493.301718" y="162.817309" style="fill: #ffc0cb; fill-opacity: 0.8; stroke: #ffc0cb; stroke-opacity: 0.8; stroke-linejoin: miter"/>
     <use xlink:href="#mc1eb2f89c9" x="477.252817" y="97.933067" style="fill: #ffc0cb; fill-opacity: 0.8; stroke: #ffc0cb; stroke-opacity: 0.8; stroke-linejoin: miter"/>
     <use xlink:href="#mc1eb2f89c9" x="417.095446" y="70.137439" style="fill: #ffc0cb; fill-opacity: 0.8; stroke: #ffc0cb; stroke-opacity: 0.8; stroke-linejoin: miter"/>
     <use xlink:href="#mc1eb2f89c9" x="355.318942" y="87.993431" style="fill: #ffc0cb; fill-opacity: 0.8; stroke: #ffc0cb; stroke-opacity: 0.8; stroke-linejoin: miter"/>
     <use xlink:href="#mc1eb2f89c9" x="301.543149" y="101.321307" style="fill: #ffc0cb; fill-opacity: 0.8; stroke: #ffc0cb; stroke-opacity: 0.8; stroke-linejoin: miter"/>
     <use xlink:href="#mc1eb2f89c9" x="239.979297" y="124.420972" style="fill: #ffc0cb; fill-opacity: 0.8; stroke: #ffc0cb; stroke-opacity: 0.8; stroke-linejoin: miter"/>
     <use xlink:href="#mc1eb2f89c9" x="233.280133" y="189.311852" style="fill: #ffc0cb; fill-opacity: 0.8; stroke: #ffc0cb; stroke-opacity: 0.8; stroke-linejoin: miter"/>
     <use xlink:href="#mc1eb2f89c9" x="224.832838" y="248.803676" style="fill: #ffc0cb; fill-opacity: 0.8; stroke: #ffc0cb; stroke-opacity: 0.8; stroke-linejoin: miter"/>
     <use xlink:href="#mc1eb2f89c9" x="252.400063" y="302.874813" style="fill: #ffc0cb; fill-opacity: 0.8; stroke: #ffc0cb; stroke-opacity: 0.8; stroke-linejoin: miter"/>
     <use xlink:href="#mc1eb2f89c9" x="292.523314" y="350.621506" style="fill: #ffc0cb; fill-opacity: 0.8; stroke: #ffc0cb; stroke-opacity: 0.8; stroke-linejoin: miter"/>
     <use xlink:href="#mc1eb2f89c9" x="353.653946" y="364.167955" style="fill: #ffc0cb; fill-opacity: 0.8; stroke: #ffc0cb; stroke-opacity: 0.8; stroke-linejoin: miter"/>
     <use xlink:href="#mc1eb2f89c9" x="415.434937" y="361.072041" style="fill: #ffc0cb; fill-opacity: 0.8; stroke: #ffc0cb; stroke-opacity: 0.8; stroke-linejoin: miter"/>
     <use xlink:href="#mc1eb2f89c9" x="470.960541" y="331.398653" style="fill: #ffc0cb; fill-opacity: 0.8; stroke: #ffc0cb; stroke-opacity: 0.8; stroke-linejoin: miter"/>
     <use xlink:href="#mc1eb2f89c9" x="509.255818" y="280.605913" style="fill: #ffc0cb; fill-opacity: 0.8; stroke: #ffc0cb; stroke-opacity: 0.8; stroke-linejoin: miter"/>
     <use xlink:href="#mc1eb2f89c9" x="518.498967" y="218.16" style="fill: #ffc0cb; fill-opacity: 0.8; stroke: #ffc0cb; stroke-opacity: 0.8; stroke-linejoin: miter"/>
    </g>
   </g>
   <g id="line2d_27">
    <path d="M 468.026274 218.16 
L 449.471775 182.331657 
L 444.635716 134.158027 
L 401.913653 116.862193 
L 360.534595 137.617049 
L 325.532072 142.87134 
L 279.570488 153.185656 
L 280.960418 199.446609 
L 268.383335 239.546732 
L 295.562223 271.515668 
L 317.567749 307.243271 
L 359.190561 311.490575 
L 399.42289 311.792027 
L 437.444545 294.175368 
L 457.185845 257.422868 
L 468.026274 218.16 
" clip-path="url(#p76d00ca76b)" style="fill: none; stroke: #00ff00; stroke-opacity: 0.8; stroke-width: 1.5; stroke-linecap: square"/>
    <defs>
     <path id="m7cd7856b77" d="M 0 4 
C 1.060812 4 2.078319 3.578535 2.828427 2.828427 
C 3.578535 2.078319 4 1.060812 4 0 
C 4 -1.060812 3.578535 -2.078319 2.828427 -2.828427 
C 2.078319 -3.578535 1.060812 -4 0 -4 
C -1.060812 -4 -2.078319 -3.578535 -2.828427 -2.828427 
C -3.578535 -2.078319 -4 -1.060812 -4 0 
C -4 1.060812 -3.578535 2.078319 -2.828427 2.828427 
C -2.078319 3.578535 -1.060812 4 0 4 
z
" style="stroke: #00ff00; stroke-opacity: 0.8"/>
    </defs>
    <g clip-path="url(#p76d00ca76b)">
     <use xlink:href="#m7cd7856b77" x="468.026274" y="218.16" style="fill: #00ff00; fill-opacity: 0.8; stroke: #00ff00; stroke-opacity: 0.8"/>
     <use xlink:href="#m7cd7856b77" x="449.471775" y="182.331657" style="fill: #00ff00; fill-opacity: 0.8; stroke: #00ff00; stroke-opacity: 0.8"/>
     <use xlink:href="#m7cd7856b77" x="444.635716" y="134.158027" style="fill: #00ff00; fill-opacity: 0.8; stroke: #00ff00; stroke-opacity: 0.8"/>
     <use xlink:href="#m7cd7856b77" x="401.913653" y="116.862193" style="fill: #00ff00; fill-opacity: 0.8; stroke: #00ff00; stroke-opacity: 0.8"/>
     <use xlink:href="#m7cd7856b77" x="360.534595" y="137.617049" style="fill: #00ff00; fill-opacity: 0.8; stroke: #00ff00; stroke-opacity: 0.8"/>
     <use xlink:href="#m7cd7856b77" x="325.532072" y="142.87134" style="fill: #00ff00; fill-opacity: 0.8; stroke: #00ff00; stroke-opacity: 0.8"/>
     <use xlink:href="#m7cd7856b77" x="279.570488" y="153.185656" style="fill: #00ff00; fill-opacity: 0.8; stroke: #00ff00; stroke-opacity: 0.8"/>
     <use xlink:href="#m7cd7856b77" x="280.960418" y="199.446609" style="fill: #00ff00; fill-opacity: 0.8; stroke: #00ff00; stroke-opacity: 0.8"/>
     <use xlink:href="#m7cd7856b77" x="268.383335" y="239.546732" style="fill: #00ff00; fill-opacity: 0.8; stroke: #00ff00; stroke-opacity: 0.8"/>
     <use xlink:href="#m7cd7856b77" x="295.562223" y="271.515668" style="fill: #00ff00; fill-opacity: 0.8; stroke: #00ff00; stroke-opacity: 0.8"/>
     <use xlink:href="#m7cd7856b77" x="317.567749" y="307.243271" style="fill: #00ff00; fill-opacity: 0.8; stroke: #00ff00; stroke-opacity: 0.8"/>
     <use xlink:href="#m7cd7856b77" x="359.190561" y="311.490575" style="fill: #00ff00; fill-opacity: 0.8; stroke: #00ff00; stroke-opacity: 0.8"/>
     <use xlink:href="#m7cd7856b77" x="399.42289" y="311.792027" style="fill: #00ff00; fill-opacity: 0.8; stroke: #00ff00; stroke-opacity: 0.8"/>
     <use xlink:href="#m7cd7856b77" x="437.444545" y="294.175368" style="fill: #00ff00; fill-opacity: 0.8; stroke: #00ff00; stroke-opacity: 0.8"/>
     <use xlink:href="#m7cd7856b77" x="457.185845" y="257.422868" style="fill: #00ff00; fill-opacity: 0.8; stroke: #00ff00; stroke-opacity: 0.8"/>
     <use xlink:href="#m7cd7856b77" x="468.026274" y="218.16" style="fill: #00ff00; fill-opacity: 0.8; stroke: #00ff00; stroke-opacity: 0.8"/>
    </g>
   </g>
   <g id="line2d_28">
    <path d="M 510.822512 218.16 
L 493.477038 162.739252 
L 471.987852 103.780403 
L 414.130252 79.263367 
L 356.06117 95.055253 
L 304.517775 106.473511 
L 243.705527 127.128237 
L 237.034486 190.109864 
L 229.150344 247.885962 
L 256.90259 299.603535 
L 296.553453 343.6411 
L 354.516534 355.960972 
L 412.469743 351.946113 
L 465.438749 325.266081 
L 498.736631 275.92247 
L 510.822512 218.16 
" clip-path="url(#p76d00ca76b)" style="fill: none; stroke: #1f77b4; stroke-opacity: 0.8; stroke-width: 1.5; stroke-linecap: square"/>
    <defs>
     <path id="m6a31ff3425" d="M -2.5 2.5 
L 2.5 -2.5 
M -2.5 -2.5 
L 2.5 2.5 
" style="stroke: #1f77b4; stroke-opacity: 0.8"/>
    </defs>
    <g clip-path="url(#p76d00ca76b)">
     <use xlink:href="#m6a31ff3425" x="510.822512" y="218.16" style="fill: #1f77b4; fill-opacity: 0.8; stroke: #1f77b4; stroke-opacity: 0.8"/>
     <use xlink:href="#m6a31ff3425" x="493.477038" y="162.739252" style="fill: #1f77b4; fill-opacity: 0.8; stroke: #1f77b4; stroke-opacity: 0.8"/>
     <use xlink:href="#m6a31ff3425" x="471.987852" y="103.780403" style="fill: #1f77b4; fill-opacity: 0.8; stroke: #1f77b4; stroke-opacity: 0.8"/>
     <use xlink:href="#m6a31ff3425" x="414.130252" y="79.263367" style="fill: #1f77b4; fill-opacity: 0.8; stroke: #1f77b4; stroke-opacity: 0.8"/>
     <use xlink:href="#m6a31ff3425" x="356.06117" y="95.055253" style="fill: #1f77b4; fill-opacity: 0.8; stroke: #1f77b4; stroke-opacity: 0.8"/>
     <use xlink:href="#m6a31ff3425" x="304.517775" y="106.473511" style="fill: #1f77b4; fill-opacity: 0.8; stroke: #1f77b4; stroke-opacity: 0.8"/>
     <use xlink:href="#m6a31ff3425" x="243.705527" y="127.128237" style="fill: #1f77b4; fill-opacity: 0.8; stroke: #1f77b4; stroke-opacity: 0.8"/>
     <use xlink:href="#m6a31ff3425" x="237.034486" y="190.109864" style="fill: #1f77b4; fill-opacity: 0.8; stroke: #1f77b4; stroke-opacity: 0.8"/>
     <use xlink:href="#m6a31ff3425" x="229.150344" y="247.885962" style="fill: #1f77b4; fill-opacity: 0.8; stroke: #1f77b4; stroke-opacity: 0.8"/>
     <use xlink:href="#m6a31ff3425" x="256.90259" y="299.603535" style="fill: #1f77b4; fill-opacity: 0.8; stroke: #1f77b4; stroke-opacity: 0.8"/>
     <use xlink:href="#m6a31ff3425" x="296.553453" y="343.6411" style="fill: #1f77b4; fill-opacity: 0.8; stroke: #1f77b4; stroke-opacity: 0.8"/>
     <use xlink:href="#m6a31ff3425" x="354.516534" y="355.960972" style="fill: #1f77b4; fill-opacity: 0.8; stroke: #1f77b4; stroke-opacity: 0.8"/>
     <use xlink:href="#m6a31ff3425" x="412.469743" y="351.946113" style="fill: #1f77b4; fill-opacity: 0.8; stroke: #1f77b4; stroke-opacity: 0.8"/>
     <use xlink:href="#m6a31ff3425" x="465.438749" y="325.266081" style="fill: #1f77b4; fill-opacity: 0.8; stroke: #1f77b4; stroke-opacity: 0.8"/>
     <use xlink:href="#m6a31ff3425" x="498.736631" y="275.92247" style="fill: #1f77b4; fill-opacity: 0.8; stroke: #1f77b4; stroke-opacity: 0.8"/>
     <use xlink:href="#m6a31ff3425" x="510.822512" y="218.16" style="fill: #1f77b4; fill-opacity: 0.8; stroke: #1f77b4; stroke-opacity: 0.8"/>
    </g>
   </g>
   <g id="line2d_29">
    <path d="M 510.054866 218.16 
L 487.866806 165.237088 
L 467.878611 108.344178 
L 415.138418 76.160552 
L 356.943819 103.453097 
L 306.916668 110.628514 
L 250.692208 132.204357 
L 244.918628 191.78569 
L 231.402956 247.407155 
L 263.423492 294.865823 
L 296.745364 343.3087 
L 354.576715 355.388392 
L 413.537213 355.231447 
L 465.438749 325.266081 
L 494.002998 273.81492 
L 510.054866 218.16 
" clip-path="url(#p76d00ca76b)" style="fill: none; stroke: #7fffd4; stroke-opacity: 0.8; stroke-width: 1.5; stroke-linecap: square"/>
    <defs>
     <path id="m4f8cc69ea0" d="M 0 4.242641 
L 4.242641 0 
L 0 -4.242641 
L -4.242641 0 
z
" style="stroke: #7fffd4; stroke-opacity: 0.8; stroke-linejoin: miter"/>
    </defs>
    <g clip-path="url(#p76d00ca76b)">
     <use xlink:href="#m4f8cc69ea0" x="510.054866" y="218.16" style="fill: #7fffd4; fill-opacity: 0.8; stroke: #7fffd4; stroke-opacity: 0.8; stroke-linejoin: miter"/>
     <use xlink:href="#m4f8cc69ea0" x="487.866806" y="165.237088" style="fill: #7fffd4; fill-opacity: 0.8; stroke: #7fffd4; stroke-opacity: 0.8; stroke-linejoin: miter"/>
     <use xlink:href="#m4f8cc69ea0" x="467.878611" y="108.344178" style="fill: #7fffd4; fill-opacity: 0.8; stroke: #7fffd4; stroke-opacity: 0.8; stroke-linejoin: miter"/>
     <use xlink:href="#m4f8cc69ea0" x="415.138418" y="76.160552" style="fill: #7fffd4; fill-opacity: 0.8; stroke: #7fffd4; stroke-opacity: 0.8; stroke-linejoin: miter"/>
     <use xlink:href="#m4f8cc69ea0" x="356.943819" y="103.453097" style="fill: #7fffd4; fill-opacity: 0.8; stroke: #7fffd4; stroke-opacity: 0.8; stroke-linejoin: miter"/>
     <use xlink:href="#m4f8cc69ea0" x="306.916668" y="110.628514" style="fill: #7fffd4; fill-opacity: 0.8; stroke: #7fffd4; stroke-opacity: 0.8; stroke-linejoin: miter"/>
     <use xlink:href="#m4f8cc69ea0" x="250.692208" y="132.204357" style="fill: #7fffd4; fill-opacity: 0.8; stroke: #7fffd4; stroke-opacity: 0.8; stroke-linejoin: miter"/>
     <use xlink:href="#m4f8cc69ea0" x="244.918628" y="191.78569" style="fill: #7fffd4; fill-opacity: 0.8; stroke: #7fffd4; stroke-opacity: 0.8; stroke-linejoin: miter"/>
     <use xlink:href="#m4f8cc69ea0" x="231.402956" y="247.407155" style="fill: #7fffd4; fill-opacity: 0.8; stroke: #7fffd4; stroke-opacity: 0.8; stroke-linejoin: miter"/>
     <use xlink:href="#m4f8cc69ea0" x="263.423492" y="294.865823" style="fill: #7fffd4; fill-opacity: 0.8; stroke: #7fffd4; stroke-opacity: 0.8; stroke-linejoin: miter"/>
     <use xlink:href="#m4f8cc69ea0" x="296.745364" y="343.3087" style="fill: #7fffd4; fill-opacity: 0.8; stroke: #7fffd4; stroke-opacity: 0.8; stroke-linejoin: miter"/>
     <use xlink:href="#m4f8cc69ea0" x="354.576715" y="355.388392" style="fill: #7fffd4; fill-opacity: 0.8; stroke: #7fffd4; stroke-opacity: 0.8; stroke-linejoin: miter"/>
     <use xlink:href="#m4f8cc69ea0" x="413.537213" y="355.231447" style="fill: #7fffd4; fill-opacity: 0.8; stroke: #7fffd4; stroke-opacity: 0.8; stroke-linejoin: miter"/>
     <use xlink:href="#m4f8cc69ea0" x="465.438749" y="325.266081" style="fill: #7fffd4; fill-opacity: 0.8; stroke: #7fffd4; stroke-opacity: 0.8; stroke-linejoin: miter"/>
     <use xlink:href="#m4f8cc69ea0" x="494.002998" y="273.81492" style="fill: #7fffd4; fill-opacity: 0.8; stroke: #7fffd4; stroke-opacity: 0.8; stroke-linejoin: miter"/>
     <use xlink:href="#m4f8cc69ea0" x="510.054866" y="218.16" style="fill: #7fffd4; fill-opacity: 0.8; stroke: #7fffd4; stroke-opacity: 0.8; stroke-linejoin: miter"/>
    </g>
   </g>
   <g id="line2d_30">
    <path d="M 476.662286 218.16 
L 463.322037 176.165123 
L 447.332406 131.16305 
L 406.30214 103.355819 
L 361.577725 147.541773 
L 327.547141 146.361543 
L 269.012837 145.515074 
L 282.274442 199.725914 
L 270.072794 239.187627 
L 292.301772 273.884524 
L 312.578053 315.885678 
L 358.007009 322.75132 
L 402.743907 322.013067 
L 444.378889 301.876737 
L 458.413084 257.96927 
L 476.662286 218.16 
" clip-path="url(#p76d00ca76b)" style="fill: none; stroke: #0000ff; stroke-opacity: 0.8; stroke-width: 1.5; stroke-linecap: square"/>
    <defs>
     <path id="mf4fe8d420e" d="M -1 3 
L 1 3 
L 1 1 
L 3 1 
L 3 -1 
L 1 -1 
L 1 -3 
L -1 -3 
L -1 -1 
L -3 -1 
L -3 1 
L -1 1 
z
" style="stroke: #0000ff; stroke-opacity: 0.8; stroke-linejoin: miter"/>
    </defs>
    <g clip-path="url(#p76d00ca76b)">
     <use xlink:href="#mf4fe8d420e" x="476.662286" y="218.16" style="fill: #0000ff; fill-opacity: 0.8; stroke: #0000ff; stroke-opacity: 0.8; stroke-linejoin: miter"/>
     <use xlink:href="#mf4fe8d420e" x="463.322037" y="176.165123" style="fill: #0000ff; fill-opacity: 0.8; stroke: #0000ff; stroke-opacity: 0.8; stroke-linejoin: miter"/>
     <use xlink:href="#mf4fe8d420e" x="447.332406" y="131.16305" style="fill: #0000ff; fill-opacity: 0.8; stroke: #0000ff; stroke-opacity: 0.8; stroke-linejoin: miter"/>
     <use xlink:href="#mf4fe8d420e" x="406.30214" y="103.355819" style="fill: #0000ff; fill-opacity: 0.8; stroke: #0000ff; stroke-opacity: 0.8; stroke-linejoin: miter"/>
     <use xlink:href="#mf4fe8d420e" x="361.577725" y="147.541773" style="fill: #0000ff; fill-opacity: 0.8; stroke: #0000ff; stroke-opacity: 0.8; stroke-linejoin: miter"/>
     <use xlink:href="#mf4fe8d420e" x="327.547141" y="146.361543" style="fill: #0000ff; fill-opacity: 0.8; stroke: #0000ff; stroke-opacity: 0.8; stroke-linejoin: miter"/>
     <use xlink:href="#mf4fe8d420e" x="269.012837" y="145.515074" style="fill: #0000ff; fill-opacity: 0.8; stroke: #0000ff; stroke-opacity: 0.8; stroke-linejoin: miter"/>
     <use xlink:href="#mf4fe8d420e" x="282.274442" y="199.725914" style="fill: #0000ff; fill-opacity: 0.8; stroke: #0000ff; stroke-opacity: 0.8; stroke-linejoin: miter"/>
     <use xlink:href="#mf4fe8d420e" x="270.072794" y="239.187627" style="fill: #0000ff; fill-opacity: 0.8; stroke: #0000ff; stroke-opacity: 0.8; stroke-linejoin: miter"/>
     <use xlink:href="#mf4fe8d420e" x="292.301772" y="273.884524" style="fill: #0000ff; fill-opacity: 0.8; stroke: #0000ff; stroke-opacity: 0.8; stroke-linejoin: miter"/>
     <use xlink:href="#mf4fe8d420e" x="312.578053" y="315.885678" style="fill: #0000ff; fill-opacity: 0.8; stroke: #0000ff; stroke-opacity: 0.8; stroke-linejoin: miter"/>
     <use xlink:href="#mf4fe8d420e" x="358.007009" y="322.75132" style="fill: #0000ff; fill-opacity: 0.8; stroke: #0000ff; stroke-opacity: 0.8; stroke-linejoin: miter"/>
     <use xlink:href="#mf4fe8d420e" x="402.743907" y="322.013067" style="fill: #0000ff; fill-opacity: 0.8; stroke: #0000ff; stroke-opacity: 0.8; stroke-linejoin: miter"/>
     <use xlink:href="#mf4fe8d420e" x="444.378889" y="301.876737" style="fill: #0000ff; fill-opacity: 0.8; stroke: #0000ff; stroke-opacity: 0.8; stroke-linejoin: miter"/>
     <use xlink:href="#mf4fe8d420e" x="458.413084" y="257.96927" style="fill: #0000ff; fill-opacity: 0.8; stroke: #0000ff; stroke-opacity: 0.8; stroke-linejoin: miter"/>
     <use xlink:href="#mf4fe8d420e" x="476.662286" y="218.16" style="fill: #0000ff; fill-opacity: 0.8; stroke: #0000ff; stroke-opacity: 0.8; stroke-linejoin: miter"/>
    </g>
   </g>
   <g id="patch_10">
    <path d="M 535.32 218.16 
C 535.32 196.319058 531.017811 174.690491 522.659644 154.512092 
C 514.301477 134.333692 502.049878 115.997879 486.606 100.554 
C 471.162121 85.110122 452.826308 72.858523 432.647908 64.500356 
C 412.469509 56.142189 390.840942 51.84 369 51.84 
C 347.159058 51.84 325.530491 56.142189 305.352092 64.500356 
C 285.173692 72.858523 266.837879 85.110122 251.394 100.554 
C 235.950122 115.997879 223.698523 134.333692 215.340356 154.512092 
C 206.982189 174.690491 202.68 196.319058 202.68 218.16 
C 202.68 240.000942 206.982189 261.629509 215.340356 281.807908 
C 223.698523 301.986308 235.950122 320.322121 251.394 335.766 
C 266.837879 351.209878 285.173692 363.461477 305.352092 371.819644 
C 325.530491 380.177811 347.159058 384.48 369 384.48 
C 390.840942 384.48 412.469509 380.177811 432.647908 371.819644 
C 452.826308 363.461477 471.162121 351.209878 486.606 335.766 
C 502.049878 320.322121 514.301477 301.986308 522.659644 281.807908 
C 531.017811 261.629509 535.32 240.000942 535.32 218.16 
" style="fill: none; stroke: #d3d3d3; stroke-width: 0.8; stroke-linejoin: miter; stroke-linecap: square"/>
   </g>
   <g id="legend_1">
    <g id="patch_11">
     <path d="M 83 429.376 
L 655 429.376 
Q 657 429.376 657 427.376 
L 657 413.626 
Q 657 411.626 655 411.626 
L 83 411.626 
Q 81 411.626 81 413.626 
L 81 427.376 
Q 81 429.376 83 429.376 
z
" style="fill: #ffffff; opacity: 0.8; stroke: #cccccc; stroke-linejoin: miter"/>
    </g>
    <g id="line2d_31">
     <path d="M 85 420.376 
L 95 420.376 
L 105 420.376 
" style="fill: none; stroke: #ffff00; stroke-opacity: 0.8; stroke-width: 1.5; stroke-linecap: square"/>
     <g>
      <use xlink:href="#medc236d5a6" x="95" y="420.376" style="fill: #ffff00; fill-opacity: 0.8; stroke: #ffff00; stroke-opacity: 0.8; stroke-linejoin: miter"/>
     </g>
    </g>
    <g id="text_24">
     <!-- TrSiam -->
     <g transform="translate(113 423.876) scale(0.12 -0.12)">
      <defs>
       <path id="SimHei-54" d="M 2850 3925 
L 1850 3925 
L 1850 125 
L 1275 125 
L 1275 3925 
L 275 3925 
L 275 4400 
L 2850 4400 
L 2850 3925 
z
" transform="scale(0.015625)"/>
      </defs>
      <use xlink:href="#SimHei-54"/>
      <use xlink:href="#SimHei-72" x="50"/>
      <use xlink:href="#SimHei-53" x="100"/>
      <use xlink:href="#SimHei-69" x="150"/>
      <use xlink:href="#SimHei-61" x="200"/>
      <use xlink:href="#SimHei-6d" x="250"/>
     </g>
    </g>
    <g id="line2d_32">
     <path d="M 169 420.376 
L 179 420.376 
L 189 420.376 
" style="fill: none; stroke: #ff0000; stroke-opacity: 0.8; stroke-width: 1.5; stroke-linecap: square"/>
     <g>
      <use xlink:href="#m589ca6e39a" x="179" y="420.376" style="fill: #ff0000; fill-opacity: 0.8; stroke: #ff0000; stroke-opacity: 0.8; stroke-linejoin: miter"/>
     </g>
    </g>
    <g id="text_25">
     <!-- DiMP -->
     <g transform="translate(197 423.876) scale(0.12 -0.12)">
      <use xlink:href="#SimHei-44"/>
      <use xlink:href="#SimHei-69" x="50"/>
      <use xlink:href="#SimHei-4d" x="100"/>
      <use xlink:href="#SimHei-50" x="150"/>
     </g>
    </g>
    <g id="line2d_33">
     <path d="M 241 420.376 
L 251 420.376 
L 261 420.376 
" style="fill: none; stroke: #ffc0cb; stroke-opacity: 0.8; stroke-width: 1.5; stroke-linecap: square"/>
     <g>
      <use xlink:href="#mc1eb2f89c9" x="251" y="420.376" style="fill: #ffc0cb; fill-opacity: 0.8; stroke: #ffc0cb; stroke-opacity: 0.8; stroke-linejoin: miter"/>
     </g>
    </g>
    <g id="text_26">
     <!-- Ours -->
     <g transform="translate(269 423.876) scale(0.12 -0.12)">
      <use xlink:href="#SimHei-4f"/>
      <use xlink:href="#SimHei-75" x="50"/>
      <use xlink:href="#SimHei-72" x="100"/>
      <use xlink:href="#SimHei-73" x="150"/>
     </g>
    </g>
    <g id="line2d_34">
     <path d="M 313 420.376 
L 323 420.376 
L 333 420.376 
" style="fill: none; stroke: #00ff00; stroke-opacity: 0.8; stroke-width: 1.5; stroke-linecap: square"/>
     <g>
      <use xlink:href="#m7cd7856b77" x="323" y="420.376" style="fill: #00ff00; fill-opacity: 0.8; stroke: #00ff00; stroke-opacity: 0.8"/>
     </g>
    </g>
    <g id="text_27">
     <!-- TCTrack -->
     <g transform="translate(341 423.876) scale(0.12 -0.12)">
      <use xlink:href="#SimHei-54"/>
      <use xlink:href="#SimHei-43" x="50"/>
      <use xlink:href="#SimHei-54" x="100"/>
      <use xlink:href="#SimHei-72" x="150"/>
      <use xlink:href="#SimHei-61" x="200"/>
      <use xlink:href="#SimHei-63" x="250"/>
      <use xlink:href="#SimHei-6b" x="300"/>
     </g>
    </g>
    <g id="line2d_35">
     <path d="M 403 420.376 
L 413 420.376 
L 423 420.376 
" style="fill: none; stroke: #1f77b4; stroke-opacity: 0.8; stroke-width: 1.5; stroke-linecap: square"/>
     <g>
      <use xlink:href="#m6a31ff3425" x="413" y="420.376" style="fill: #1f77b4; fill-opacity: 0.8; stroke: #1f77b4; stroke-opacity: 0.8"/>
     </g>
    </g>
    <g id="text_28">
     <!-- TrDimp -->
     <g transform="translate(431 423.876) scale(0.12 -0.12)">
      <use xlink:href="#SimHei-54"/>
      <use xlink:href="#SimHei-72" x="50"/>
      <use xlink:href="#SimHei-44" x="100"/>
      <use xlink:href="#SimHei-69" x="150"/>
      <use xlink:href="#SimHei-6d" x="200"/>
      <use xlink:href="#SimHei-70" x="250"/>
     </g>
    </g>
    <g id="line2d_36">
     <path d="M 487 420.376 
L 497 420.376 
L 507 420.376 
" style="fill: none; stroke: #7fffd4; stroke-opacity: 0.8; stroke-width: 1.5; stroke-linecap: square"/>
     <g>
      <use xlink:href="#m4f8cc69ea0" x="497" y="420.376" style="fill: #7fffd4; fill-opacity: 0.8; stroke: #7fffd4; stroke-opacity: 0.8; stroke-linejoin: miter"/>
     </g>
    </g>
    <g id="text_29">
     <!-- TransT -->
     <g transform="translate(515 423.876) scale(0.12 -0.12)">
      <use xlink:href="#SimHei-54"/>
      <use xlink:href="#SimHei-72" x="50"/>
      <use xlink:href="#SimHei-61" x="100"/>
      <use xlink:href="#SimHei-6e" x="150"/>
      <use xlink:href="#SimHei-73" x="200"/>
      <use xlink:href="#SimHei-54" x="250"/>
     </g>
    </g>
    <g id="line2d_37">
     <path d="M 571 420.376 
L 581 420.376 
L 591 420.376 
" style="fill: none; stroke: #0000ff; stroke-opacity: 0.8; stroke-width: 1.5; stroke-linecap: square"/>
     <g>
      <use xlink:href="#mf4fe8d420e" x="581" y="420.376" style="fill: #0000ff; fill-opacity: 0.8; stroke: #0000ff; stroke-opacity: 0.8; stroke-linejoin: miter"/>
     </g>
    </g>
    <g id="text_30">
     <!-- SiamRPN++ -->
     <g transform="translate(599 423.876) scale(0.12 -0.12)">
      <defs>
       <path id="SimHei-4e" d="M 2850 125 
L 2225 125 
L 850 3225 
L 825 3225 
L 825 125 
L 250 125 
L 250 4400 
L 875 4400 
L 2250 1300 
L 2275 1300 
L 2275 4400 
L 2850 4400 
L 2850 125 
z
" transform="scale(0.015625)"/>
       <path id="SimHei-2b" d="M 3000 2125 
L 1775 2125 
L 1775 900 
L 1350 900 
L 1350 2125 
L 125 2125 
L 125 2525 
L 1350 2525 
L 1350 3750 
L 1775 3750 
L 1775 2525 
L 3000 2525 
L 3000 2125 
z
" transform="scale(0.015625)"/>
      </defs>
      <use xlink:href="#SimHei-53"/>
      <use xlink:href="#SimHei-69" x="50"/>
      <use xlink:href="#SimHei-61" x="100"/>
      <use xlink:href="#SimHei-6d" x="150"/>
      <use xlink:href="#SimHei-52" x="200"/>
      <use xlink:href="#SimHei-50" x="250"/>
      <use xlink:href="#SimHei-4e" x="300"/>
      <use xlink:href="#SimHei-2b" x="350"/>
      <use xlink:href="#SimHei-2b" x="400"/>
     </g>
    </g>
   </g>
  </g>
 </g>
 <defs>
  <clipPath id="p76d00ca76b">
   <path d="M 535.32 218.16 
C 535.32 196.319058 531.017811 174.690491 522.659644 154.512092 
C 514.301477 134.333692 502.049878 115.997879 486.606 100.554 
C 471.162121 85.110122 452.826308 72.858523 432.647908 64.500356 
C 412.469509 56.142189 390.840942 51.84 369 51.84 
C 347.159058 51.84 325.530491 56.142189 305.352092 64.500356 
C 285.173692 72.858523 266.837879 85.110122 251.394 100.554 
C 235.950122 115.997879 223.698523 134.333692 215.340356 154.512092 
C 206.982189 174.690491 202.68 196.319058 202.68 218.16 
C 202.68 240.000942 206.982189 261.629509 215.340356 281.807908 
C 223.698523 301.986308 235.950122 320.322121 251.394 335.766 
C 266.837879 351.209878 285.173692 363.461477 305.352092 371.819644 
C 325.530491 380.177811 347.159058 384.48 369 384.48 
C 390.840942 384.48 412.469509 380.177811 432.647908 371.819644 
C 452.826308 363.461477 471.162121 351.209878 486.606 335.766 
C 502.049878 320.322121 514.301477 301.986308 522.659644 281.807908 
C 531.017811 261.629509 535.32 240.000942 535.32 218.16 
M 369 218.16 
C 369 218.16 369 218.16 369 218.16 
C 369 218.16 369 218.16 369 218.16 
C 369 218.16 369 218.16 369 218.16 
C 369 218.16 369 218.16 369 218.16 
C 369 218.16 369 218.16 369 218.16 
C 369 218.16 369 218.16 369 218.16 
C 369 218.16 369 218.16 369 218.16 
C 369 218.16 369 218.16 369 218.16 
C 369 218.16 369 218.16 369 218.16 
C 369 218.16 369 218.16 369 218.16 
C 369 218.16 369 218.16 369 218.16 
C 369 218.16 369 218.16 369 218.16 
C 369 218.16 369 218.16 369 218.16 
C 369 218.16 369 218.16 369 218.16 
C 369 218.16 369 218.16 369 218.16 
C 369 218.16 369 218.16 369 218.16 
z
"/>
  </clipPath>
 </defs>
</svg>
